<?xml version="1.0" encoding="utf-8"?>
<!-- Generator: Adobe Illustrator 25.2.1, SVG Export Plug-In . SVG Version: 6.00 Build 0)  -->
<svg version="1.1" id="Layer_1" xmlns="http://www.w3.org/2000/svg" xmlns:xlink="http://www.w3.org/1999/xlink" x="0px" y="0px"
	 viewBox="0 0 290 290" style="enable-background:new 0 0 290 290;" xml:space="preserve">
<style type="text/css">
	.st0{fill:none;}
	.st1{fill:#CE2C88;}
</style>
<g>
	<g>
		<rect x="0" class="st0" width="290" height="290"/>
	</g>
	<g>
		<path class="st1" d="M236.5,119.99l-1.98-1.69c-2.55-2.16-6.38-1.85-8.55,0.7l-31.3,36.84V71.88c0-6-4.88-10.89-10.89-10.89H71.2
			c-6,0-10.89,4.88-10.89,10.89v5.53h-6.64c-6,0-10.89,4.88-10.89,10.89v151.46c0,6,4.88,10.89,10.89,10.89h112.58
			c6,0,10.89-4.88,10.89-10.89v-5.53h6.64c6,0,10.89-4.88,10.89-10.89v-44.75l42.53-50.05C239.36,125.99,239.05,122.16,236.5,119.99
			z M190.26,223.34c0,3.57-2.91,6.48-6.48,6.48h-6.64h-2.2h-2.2H71.2c-3.57,0-6.48-2.91-6.48-6.48V81.82v-2.2v-2.2v-5.53
			c0-3.57,2.91-6.48,6.48-6.48h112.58c3.57,0,6.48,2.91,6.48,6.48v89.15l-13.12,15.44l-2.2,2.59l-2.2,2.59l-21.06,24.79l-0.22,0.25
			l-4.68,12.39c-0.13,0.36-0.19,0.72-0.2,1.08c-1.3,0.57-2.72,0.72-4.14,0.31c-1.96-0.57-3.61-1.73-5.72-1.8
			c-3.64-0.13-7.15,3.03-10.68,1.22c-1.53-0.78-2.89-1.85-4.51-2.46c-1.64-0.61-3.4-0.57-5.05-0.03c-2.68,0.87-5.9,3.85-8.83,2.51
			c-1.64-0.75-2.93-2.05-4.69-2.58c-1.52-0.46-3.17-0.27-4.65,0.26c-0.77,0.27-1.5,0.62-2.23,0.98c0.05-0.23,0.04-0.47-0.03-0.74
			c-0.32-1.25-1.63-1.39-2.69-1.18c-1.74,0.34-2.97,1.6-4.27,2.71c-1.78,1.54-3.29,1.07-5.12-0.23c-1.75-1.24-3.19-2.74-5.51-2.41
			c-2.19,0.31-3.93,1.93-5.34,3.52c-1.41,1.59,0.92,3.93,2.34,2.34c1.02-1.15,2.8-3.3,4.53-2.35c1.7,0.94,2.95,2.41,4.83,3.1
			c1.47,0.54,3.04,0.5,4.43-0.14c2.43,1.3,5.85-0.5,7.99-1.56c1.3-0.64,2.82-1.48,4.33-1.26c1.65,0.24,2.94,1.64,4.4,2.36
			c3.47,1.71,6.53,0.1,9.7-1.46c1.38-0.68,2.88-1.31,4.42-0.87c1.68,0.48,3.05,1.74,4.62,2.48c1.95,0.93,3.93,1.08,6.02,0.56
			c1.95-0.48,3.92-1.62,5.98-1.51c2.21,0.12,4.09,1.7,6.31,1.97c1.85,0.22,3.7-0.14,5.34-0.97c0.41,0.19,0.84,0.3,1.28,0.3
			c0.53,0,1.06-0.14,1.55-0.42l11.47-6.62l10.06-11.84l2.2-2.59l2.2-2.59l13.12-15.44V223.34z M159.58,210.48l3.03-1.75l-0.58,2.31
			l-0.29,1.17l-0.41-0.33l-1.15,1.35l-5.22,3.01l-2.2-2.09l2.06-5.46l1.02-1.2l-0.16-0.13l0.42-0.18l2.89-1.23l-1.06,3.2l-0.93,2.81
			L159.58,210.48z M93.37,217.12c0,0,0-0.02,0-0.02C93.46,217.11,93.46,217.09,93.37,217.12z M194.66,172.64l-2.2,2.59l-2.2,2.59
			l-13.12,15.44l-2.2,2.59l-2.2,2.59l-7.47,8.79l0.76-3.01l-5.12,2.95l1.7-5.15l-3.33,1.41l13.45-15.83l2.2-2.59l2.2-2.59
			l13.12-15.44l2.2-2.59l2.2-2.59l25.69-30.24l5.35,4.54L194.66,172.64z M227.13,134.43l-5.35-4.54l0.2-0.24l5.35,4.54
			L227.13,134.43z M228.76,132.51l-5.35-4.54l0.47-0.55l5.35,4.54L228.76,132.51z M234.25,126.05l-3.6,4.24l-5.35-4.54l3.6-4.24
			c0.79-0.93,2.19-1.04,3.11-0.25l1.98,1.69C234.93,123.72,235.04,125.12,234.25,126.05z"/>
		<path class="st1" d="M100.11,154.59H80.16c-3.24,0-5.86,2.62-5.86,5.86v42.17c0,3.24,2.62,5.86,5.86,5.86h19.95
			c3.24,0,5.86-2.62,5.86-5.86v-42.17C105.97,157.21,103.35,154.59,100.11,154.59z"/>
		<path class="st1" d="M140.67,140.09h32.06h2.2h0.39c0.63,0,1.24-0.1,1.82-0.27c2.6-0.78,4.5-3.19,4.5-6.05V89.74
			c0-3.26-2.47-5.95-5.65-6.28c-0.22-0.02-0.44-0.04-0.67-0.04h-1.88h-2.93h-29.84c-3.49,0-6.32,2.83-6.32,6.32v44.03
			C134.36,137.26,137.19,140.09,140.67,140.09z"/>
		<path class="st1" d="M120.88,157.9c-2.79,0.25-5.17,1.68-7.47,3.18c-1.78,1.16-0.12,4.02,1.67,2.85c1.93-1.26,4.04-2.73,6.44-2.77
			c2.48-0.04,3.48,2.1,5.64,2.82c2.19,0.72,4.5-0.1,6.45-1.11c2.11-1.1,4.03-2.47,6.4-1.28c1.95,0.97,3.66,2.01,5.93,1.66
			c2.04-0.31,3.72-1.57,5.69-2.11c2.28-0.62,4.45,0.79,6.51,1.59c2.22,0.86,4.61,1.11,6.96,0.79c1.36-0.19,2.58-0.75,3.9-1.01
			c1.25-0.25,2.49,0.33,3.73,0.51c0.06,0.01,0.12,0.02,0.18,0.03c0.67,0.07,1.35,0.08,2.02,0.02c0.75-0.06,1.48-0.21,2.2-0.42
			c1.12-0.33,2.19-0.84,3.16-1.51c1.73-1.21,0.08-4.07-1.67-2.85c-0.48,0.33-0.97,0.61-1.49,0.84c-0.71,0.31-1.45,0.52-2.2,0.61
			c-0.72,0.09-1.46,0.07-2.2-0.06c-0.16-0.03-0.32-0.05-0.48-0.09c-1.18-0.29-2.23-0.59-3.46-0.4c-1.25,0.19-2.41,0.74-3.66,0.99
			c-2.44,0.48-4.76-0.04-7-1c-2.13-0.91-4.24-1.8-6.61-1.4c-2.04,0.35-3.72,1.66-5.7,2.13c-2.13,0.51-3.8-1.22-5.71-1.85
			c-2.28-0.75-4.53,0.02-6.57,1.09c-1.8,0.94-4.29,2.75-6.22,1.19c-0.95-0.77-1.75-1.54-2.92-1.98
			C123.29,157.93,122.06,157.79,120.88,157.9z"/>
		<path class="st1" d="M172.73,168.06c-0.14-0.09-0.29-0.17-0.48-0.22c-0.99-0.27-1.97-0.55-3.01-0.46
			c-1.19,0.1-2.26,0.58-3.41,0.89c-2.13,0.56-4.34,0.41-6.41-0.32c-1.92-0.68-3.68-1.72-5.74-1.97c-2.03-0.24-3.82,0.47-5.63,1.3
			c-1.79,0.82-3.22,1.38-5.08,0.41c-1.83-0.95-3.52-1.91-5.66-1.64c-2.06,0.26-3.77,1.41-5.59,2.32c-0.87,0.44-1.87,0.86-2.87,0.83
			c-1.16-0.04-1.8-0.91-2.65-1.57c-4.08-3.18-9.08-0.72-12.81,1.71c-1.78,1.16-0.12,4.02,1.67,2.85c1.72-1.12,3.54-2.39,5.62-2.71
			c0.87-0.13,1.81-0.09,2.63,0.24c0.91,0.37,1.54,1.15,2.32,1.72c3.73,2.74,7.36-0.48,10.84-1.79c2.08-0.78,3.4,0.21,5.22,1.08
			c1.75,0.84,3.51,1.09,5.39,0.5c1.68-0.52,3.19-1.62,4.93-1.95c1.91-0.37,3.78,0.72,5.48,1.43c2.19,0.91,4.53,1.36,6.9,1.13
			c1.11-0.11,2.18-0.34,3.23-0.68c1.44-0.46,2.29-0.55,3.74-0.15c0.55,0.15,1.01,0.03,1.35-0.23
			C173.57,170.17,173.72,168.7,172.73,168.06z"/>
		<path class="st1" d="M70.94,91.63c2.4-1.57,6.11-4.09,8.98-2.08c0.7,0.49,1.25,1.15,1.98,1.61c0.78,0.49,1.71,0.74,2.63,0.79
			c1.5,0.08,2.98-0.42,4.33-1.07c0.15,0.06,0.31,0.1,0.49,0.12c3.03,0.27,5.19-2.01,8.05-2.33c1.57-0.17,3.13,0.64,4.52,1.23
			c1.51,0.65,3,1.15,4.64,1.35c1.57,0.19,3.17,0.1,4.72-0.24c0.86-0.19,1.67-0.53,2.51-0.75c0.88-0.23,1.52-0.08,2.38,0.15
			c3.14,0.82,6.47,0.28,9.15-1.58c1.73-1.21,0.08-4.07-1.67-2.85c-1.25,0.87-2.62,1.43-4.15,1.52c-1.59,0.09-2.97-0.63-4.52-0.69
			c-1.61-0.06-3.04,0.69-4.58,1.02c-1.57,0.35-3.25,0.31-4.81-0.08c-2.84-0.72-5.34-2.64-8.39-2.35c-2.63,0.25-4.88,2.34-7.5,2.3
			c-0.46-0.31-1.06-0.42-1.68-0.08c-1.19,0.64-2.9,1.49-4.25,0.83c-0.75-0.37-1.33-1.13-2.01-1.62c-0.7-0.5-1.54-0.85-2.37-1.04
			c-3.73-0.83-7.09,1.04-10.11,3.01C67.5,89.93,69.15,92.79,70.94,91.63z"/>
		<path class="st1" d="M70.94,99.89c2.89-1.68,6.99-4.08,10.31-2.05c0.76,0.47,1.38,1.14,2.16,1.58c0.86,0.48,1.79,0.72,2.77,0.78
			c1.98,0.13,3.93-0.62,5.69-1.46c0.26,0.28,0.62,0.47,1.09,0.51c2.53,0.21,4.65-0.98,6.96-1.8c2.72-0.97,4.93-0.15,7.5,0.83
			c2.55,0.97,5.21,1.5,7.95,1.27c1.39-0.12,2.71-0.41,4.05-0.8c1.45-0.42,2.48-0.39,3.92-0.03c2.07,0.5,2.95-2.68,0.88-3.19
			c-1.23-0.3-2.39-0.58-3.66-0.42c-1.41,0.18-2.73,0.74-4.12,0.99c-3,0.54-5.78-0.12-8.57-1.19c-2.48-0.95-4.92-1.67-7.58-1.04
			c-2.48,0.59-4.68,2.28-7.31,2.06c-0.34-0.03-0.62,0.04-0.84,0.16c-0.47-0.4-1.15-0.59-1.86-0.25c-1.46,0.69-3.45,1.51-5.04,0.79
			c-0.81-0.37-1.43-1.1-2.18-1.58c-0.78-0.5-1.7-0.86-2.61-1.04c-4.07-0.81-7.75,1.02-11.17,3.01
			C67.44,98.11,69.1,100.96,70.94,99.89z"/>
		<path class="st1" d="M123.65,120.74c-1.18,0.82-2.48,1.38-3.93,1.5c-1.6,0.13-2.95-0.51-4.51-0.65c-1.54-0.14-2.89,0.5-4.35,0.88
			c-1.48,0.39-3.07,0.46-4.58,0.18c-2.91-0.53-5.41-2.54-8.45-2.54c-0.79,0-1.52,0.17-2.23,0.41c-0.2-0.11-0.41-0.2-0.66-0.24
			c-2.99-0.58-5.43,1.52-8,2.6c-1.7,0.71-2.85,0.68-4.23-0.51c-1.2-1.04-2.48-1.73-4.07-1.95c-3.5-0.48-6.56,1.29-9.39,3.12
			c-1.78,1.16-0.12,4.02,1.67,2.85c2.31-1.5,5.35-3.63,8.25-2.47c1.24,0.5,2.02,1.7,3.24,2.28c1.28,0.61,2.72,0.6,4.08,0.3
			c0.79-0.18,1.54-0.49,2.27-0.84c0.43,0.12,0.91,0.14,1.36,0.13c2.72-0.08,4.83-2.22,7.48-2.37c1.35-0.08,2.67,0.54,3.88,1.06
			c1.43,0.62,2.84,1.19,4.39,1.43c1.65,0.26,3.29,0.25,4.93-0.06c1.81-0.33,3.27-1.24,5.13-0.76c3.25,0.85,6.59,0.43,9.38-1.52
			C127.05,122.39,125.4,119.53,123.65,120.74z M90.03,125.32C90.11,125.35,89.97,125.36,90.03,125.32L90.03,125.32z M94.01,120.74
			c-0.02-0.01-0.04-0.03,0.12-0.03C94.09,120.71,94.04,120.74,94.01,120.74z"/>
		<path class="st1" d="M81.77,132.98c1.62,1.17,3,2.11,5.1,2c1.52-0.07,3.25-0.53,4.64-1.27c0.61,0.19,1.23,0.33,1.88,0.35
			c3.33,0.12,6.03-2.49,9.3-2.37c1.72,0.06,3.37,0.85,4.96,1.45c1.69,0.64,3.4,1.06,5.2,1.2c1.81,0.14,3.67-0.03,5.43-0.48
			c0.82-0.21,1.63-0.54,2.47-0.67c0.9-0.14,1.71,0.1,2.58,0.32c2.07,0.5,2.95-2.68,0.88-3.19c-1.74-0.43-3.24-0.62-5.01-0.16
			c-1.89,0.49-3.62,0.97-5.6,0.92c-3.71-0.1-6.81-2.34-10.45-2.66c-1.63-0.14-3.21,0.26-4.72,0.85c-1.47,0.58-3.01,1.43-4.62,1.49
			c-0.38,0.01-0.74-0.03-1.1-0.11c-0.45-0.65-1.25-0.98-1.96-1.22c-0.82-0.29-1.66-0.46-2.5-0.63c-0.58-0.2-1.17-0.34-1.8-0.34
			c-1.59,0-2.14,2.13-1.05,2.97c-0.91-0.39-1.62-1.14-2.54-1.69c-1.3-0.78-2.83-1.11-4.33-1.15c-3.38-0.07-6.43,1.57-9.27,3.22
			c-1.84,1.07-0.18,3.92,1.67,2.85C74.1,132.83,78.31,130.47,81.77,132.98z"/>
		<path class="st1" d="M159.65,189.44c-2.05-0.73-3.96-1.86-6.17-2.07c-2.1-0.2-3.93,0.65-5.79,1.5c-0.81,0.37-1.68,0.79-2.58,0.83
			c-0.99,0.05-1.84-0.44-2.68-0.9c-1.85-0.99-3.63-1.68-5.75-1.23c-2.13,0.45-3.82,1.85-5.82,2.62c-0.95,0.37-2.08,0.67-3.03,0.17
			c-0.85-0.44-1.46-1.3-2.29-1.81c-4.05-2.47-8.65-0.07-12.13,2.2c-1.78,1.16-0.12,4.02,1.67,2.85c1.82-1.19,3.78-2.56,6.02-2.75
			c2.2-0.19,3.08,1.01,4.72,2.14c1.69,1.16,3.83,1.12,5.71,0.46c1.94-0.67,3.61-2.09,5.61-2.59c1.97-0.5,3.43,0.82,5.15,1.55
			c1.86,0.79,3.7,0.7,5.56-0.03c1.6-0.62,3.21-1.75,4.98-1.76c2.06-0.01,4.06,1.32,5.95,2
			C160.78,193.34,161.64,190.15,159.65,189.44z"/>
		<path class="st1" d="M144.76,197.93c-1.35-0.25-2.43-1.04-3.66-1.6c-1.29-0.58-2.58-0.84-3.99-0.62
			c-1.49,0.23-2.86,0.93-4.17,1.64c-1.24,0.67-2.61,1.53-4.07,1.48c-1.4-0.05-2.21-1.39-3.33-2.06c-1.14-0.69-2.49-1-3.81-1.02
			c-3.1-0.05-5.81,1.58-8.32,3.22c-1.78,1.16-0.12,4.02,1.67,2.85c2.17-1.41,4.72-3.2,7.46-2.69c1.34,0.25,2.07,1.18,3.11,1.95
			c1.06,0.78,2.35,1.14,3.67,1.05c2.81-0.19,4.83-2.05,7.39-2.92c2.71-0.92,4.63,1.44,7.18,1.92
			C145.96,201.51,146.85,198.32,144.76,197.93z"/>
		<path class="st1" d="M195.24,59.93c0.45,0,0.9-0.13,1.3-0.41c8.28-5.85,14-16.4,14.24-16.85c0.59-1.09,0.18-2.46-0.92-3.05
			c-1.09-0.58-2.46-0.18-3.05,0.92c-0.05,0.1-5.47,10.07-12.87,15.3c-1.01,0.72-1.26,2.12-0.54,3.14
			C193.84,59.6,194.54,59.93,195.24,59.93z"/>
		<path class="st1" d="M197.18,67.69c0.33,0.92,1.19,1.49,2.12,1.49c0.25,0,0.51-0.04,0.76-0.13c9.54-3.44,17.87-12.07,18.22-12.44
			c0.86-0.9,0.83-2.32-0.07-3.18c-0.9-0.86-2.32-0.83-3.18,0.07c-0.08,0.08-7.96,8.24-16.49,11.31
			C197.36,65.23,196.75,66.52,197.18,67.69z"/>
		<path class="st1" d="M59.1,57.12c0.4,0.3,0.88,0.45,1.35,0.45c0.69,0,1.36-0.31,1.8-0.9c0.74-1,0.54-2.41-0.45-3.15
			c-5.99-4.48-9.19-11.77-9.24-11.89c-0.49-1.14-1.81-1.67-2.95-1.18c-1.14,0.49-1.67,1.81-1.18,2.95
			C48.57,43.74,52.11,51.89,59.1,57.12z"/>
		<path class="st1" d="M54.67,63.24c0.87,0,1.7-0.51,2.07-1.36c0.49-1.14-0.04-2.46-1.18-2.96c-7.65-3.29-13.63-9.88-13.69-9.95
			c-0.83-0.92-2.25-1-3.18-0.17c-0.92,0.83-1,2.25-0.17,3.17c0.27,0.3,6.68,7.39,15.27,11.07C54.08,63.18,54.38,63.24,54.67,63.24z"
			/>
		<path class="st1" d="M246.7,129.73c0.49-1.14-0.04-2.46-1.19-2.95c-1.14-0.49-2.46,0.04-2.95,1.19
			c-2.36,5.52-8.12,10.6-8.18,10.65c-0.94,0.82-1.03,2.24-0.21,3.17c0.44,0.51,1.07,0.77,1.7,0.77c0.52,0,1.05-0.18,1.48-0.55
			C237.61,141.77,243.93,136.21,246.7,129.73z"/>
		<path class="st1" d="M250.7,130c-1.14-0.5-2.47,0.02-2.96,1.16c-2.37,5.43-8.17,10.37-8.22,10.42c-0.95,0.8-1.07,2.22-0.27,3.17
			c0.44,0.53,1.08,0.8,1.72,0.8c0.51,0,1.03-0.17,1.45-0.53c0.27-0.23,6.65-5.65,9.45-12.06C252.36,131.82,251.84,130.5,250.7,130z"
			/>
		<path class="st1" d="M212.85,121.74c-0.63,1.07-0.27,2.45,0.81,3.08c0.36,0.21,0.75,0.31,1.13,0.31c0.77,0,1.52-0.4,1.94-1.11
			c0.04-0.07,3.95-6.68,8.94-10.03c1.03-0.69,1.31-2.09,0.61-3.12c-0.69-1.03-2.09-1.3-3.12-0.61
			C217.31,114.18,213.03,121.43,212.85,121.74z"/>
		<path class="st1" d="M208.94,117.31c-0.61,1.08-0.22,2.45,0.86,3.06c0.35,0.2,0.73,0.29,1.1,0.29c0.79,0,1.55-0.41,1.96-1.15
			c0.04-0.07,3.81-6.68,8.7-10.03c1.03-0.7,1.29-2.1,0.59-3.13c-0.7-1.03-2.1-1.29-3.13-0.59
			C213.25,109.72,209.11,117,208.94,117.31z"/>
	</g>
</g>
</svg>
