<?xml version="1.0" encoding="utf-8"?>
<!-- Generator: Adobe Illustrator 25.2.1, SVG Export Plug-In . SVG Version: 6.00 Build 0)  -->
<svg version="1.1" id="Layer_1" xmlns="http://www.w3.org/2000/svg" xmlns:xlink="http://www.w3.org/1999/xlink" x="0px" y="0px"
	 viewBox="0 0 290 290" style="enable-background:new 0 0 290 290;" xml:space="preserve">
<style type="text/css">
	.st0{fill:none;}
	.st1{fill:#CE328A;}
	.st2{fill:#CE2C88;}
</style>
<g>
	<g>
		<g>
			<rect class="st0" width="290" height="290"/>
		</g>
	</g>
	<g>
		<rect x="149.39" y="140.76" class="st1" width="0.26" height="8.17"/>
		<rect x="119.35" y="140.76" class="st1" width="0.26" height="8.17"/>
		<rect x="111.01" y="140.76" class="st1" width="0.26" height="8.17"/>
		<rect x="111.38" y="140.76" class="st1" width="0.26" height="8.17"/>
		<path class="st1" d="M118.97,143.8h-0.53l0.01-0.02c0.03-0.06,0.06-0.12,0.09-0.19c0.03-0.06,0.05-0.11,0.07-0.17l0.01-0.02
			c0.02-0.05,0.04-0.11,0.06-0.17l0.01-0.02c0.02-0.05,0.03-0.1,0.05-0.16l0.01-0.04c0.01-0.05,0.02-0.1,0.03-0.15l0.01-0.05
			c0.01-0.05,0.02-0.1,0.02-0.14l0.01-0.06c0.01-0.05,0.01-0.1,0.01-0.15l0-0.05c0-0.07,0.01-0.13,0.01-0.21
			c0-0.06,0-0.13-0.01-0.19l0-0.02c0-0.06-0.01-0.11-0.02-0.17c-0.05-0.37-0.16-0.73-0.33-1.07h-0.29c0.03,0.05,0.05,0.1,0.08,0.15
			l0.01,0.01c0.02,0.05,0.05,0.1,0.07,0.16l0.01,0.02c0.02,0.05,0.04,0.1,0.06,0.15l0.01,0.03c0.02,0.05,0.03,0.09,0.04,0.14
			l0.01,0.04c0.01,0.04,0.02,0.09,0.03,0.13l0.01,0.05c0.01,0.04,0.02,0.09,0.02,0.13l0.01,0.06c0.01,0.04,0.01,0.09,0.01,0.14
			l0,0.05c0,0.06,0.01,0.13,0.01,0.19c0,1.94-1.88,3.52-4.18,3.52h-1.27v-0.08h1.27c0.98,0,1.93-0.3,2.67-0.85
			c0.12-0.09,0.24-0.19,0.34-0.28l0.04-0.03c0.66-0.63,1.02-1.44,1.02-2.27c0-0.06,0-0.12-0.01-0.19l-0.01-0.06
			c0-0.04-0.01-0.08-0.01-0.12c0-0.02-0.01-0.07-0.01-0.07c-0.01-0.04-0.01-0.08-0.02-0.11c0-0.02-0.01-0.07-0.01-0.07
			c-0.01-0.04-0.02-0.07-0.03-0.11c-0.01-0.02-0.01-0.04-0.02-0.07c-0.01-0.04-0.02-0.07-0.03-0.11c-0.01-0.02-0.01-0.04-0.02-0.06
			c-0.01-0.04-0.03-0.08-0.04-0.11l-0.02-0.06c-0.02-0.04-0.04-0.08-0.05-0.12l-0.02-0.04c-0.02-0.05-0.05-0.1-0.08-0.15l0-0.01
			h-0.3c0.03,0.05,0.06,0.1,0.08,0.14l0.01,0.01c0.03,0.05,0.06,0.11,0.08,0.17c0.05,0.12,0.1,0.24,0.13,0.36l0,0.02
			c0.02,0.05,0.03,0.1,0.04,0.16l0.01,0.05c0.01,0.04,0.02,0.09,0.02,0.13c0,0.02,0.01,0.04,0.01,0.06
			c0.01,0.04,0.01,0.09,0.01,0.13l0,0.05c0,0.06,0.01,0.12,0.01,0.18c0,0.48-0.13,0.95-0.38,1.39l-0.02,0.03
			c-0.65,1.1-1.95,1.78-3.4,1.78h-1.27v-0.08h1.27c2.03,0,3.68-1.4,3.68-3.11c0-0.06,0-0.12-0.01-0.18l0-0.05
			c0-0.04-0.01-0.08-0.01-0.13c0-0.02-0.01-0.04-0.01-0.06c-0.01-0.04-0.01-0.09-0.02-0.13l-0.01-0.05
			c-0.03-0.12-0.06-0.23-0.1-0.34l-0.01-0.03c-0.02-0.05-0.04-0.09-0.06-0.14l-0.02-0.04c-0.02-0.05-0.04-0.09-0.07-0.13l-0.01-0.03
			c-0.03-0.05-0.06-0.11-0.08-0.15h-0.31c0.03,0.04,0.06,0.09,0.09,0.13l0.02,0.03c0.03,0.05,0.05,0.09,0.08,0.15l0.01,0.01
			c0.03,0.05,0.05,0.11,0.08,0.17l0.01,0.03c0.02,0.05,0.04,0.09,0.05,0.14l0.01,0.04c0.02,0.05,0.03,0.1,0.04,0.15l0.01,0.02
			c0.01,0.06,0.03,0.12,0.04,0.17l0.01,0.05c0.01,0.05,0.01,0.09,0.02,0.14l0,0.05c0,0.06,0.01,0.12,0.01,0.18
			c0,0.08,0,0.16-0.01,0.24c0,0,0,0.04,0,0.05c-0.18,1.47-1.64,2.58-3.4,2.58h-1.27v-0.08h1.27c0.41,0,0.82-0.07,1.2-0.19
			c0.05-0.02,0.11-0.04,0.16-0.06c0.09-0.03,0.18-0.07,0.26-0.11c1.03-0.5,1.67-1.43,1.67-2.42c0-0.06,0-0.12-0.01-0.18l0-0.05
			c0-0.05-0.01-0.1-0.02-0.15l0-0.03c-0.01-0.06-0.02-0.12-0.04-0.18l-0.01-0.02c-0.01-0.05-0.03-0.1-0.05-0.16l0-0.02
			c-0.04-0.12-0.09-0.23-0.15-0.34l-0.01-0.01c-0.06-0.11-0.13-0.22-0.2-0.32h-0.33c0.03,0.04,0.06,0.08,0.1,0.12l0.03,0.04
			c0.03,0.05,0.06,0.09,0.09,0.14l0.03,0.04c0.05,0.08,0.09,0.17,0.13,0.26l0.01,0.03c0.01,0.02,0.01,0.03,0.02,0.05
			c0.01,0.02,0.02,0.05,0.03,0.07l0.01,0.03c0.01,0.04,0.03,0.08,0.04,0.12c0.01,0.03,0.02,0.06,0.02,0.1
			c0.01,0.05,0.02,0.1,0.03,0.15l0,0.02c0,0.02,0.01,0.04,0.01,0.06c0.01,0.09,0.01,0.16,0.01,0.24c0,1-0.7,1.91-1.79,2.33
			c-0.13,0.05-0.24,0.08-0.35,0.11c-0.29,0.07-0.59,0.11-0.89,0.11h-1.27v-0.08h1.27c1.61,0,2.92-1.11,2.92-2.47
			c0-0.07,0-0.14-0.01-0.23c0-0.02,0-0.04-0.01-0.05l0-0.03c-0.01-0.05-0.01-0.09-0.02-0.14c-0.01-0.03-0.02-0.07-0.02-0.1
			c-0.01-0.04-0.02-0.07-0.03-0.11c-0.01-0.04-0.03-0.08-0.04-0.11c-0.01-0.02-0.01-0.03-0.02-0.05l-0.01-0.02
			c-0.1-0.22-0.23-0.43-0.39-0.62h-0.35c0.04,0.04,0.08,0.08,0.12,0.13l0.01,0.01c0.04,0.05,0.08,0.1,0.12,0.15l0.02,0.02
			c0.03,0.05,0.07,0.1,0.1,0.15l0.02,0.04c0.03,0.05,0.05,0.09,0.07,0.14c0.01,0.01,0.01,0.03,0.02,0.04l0.01,0.02
			c0.02,0.04,0.04,0.09,0.05,0.13c0.01,0.02,0.01,0.04,0.02,0.06l0.01,0.04c0.01,0.03,0.02,0.06,0.03,0.1
			c0.01,0.03,0.01,0.07,0.02,0.1l0.01,0.05c0,0.02,0.01,0.04,0.01,0.06c0.01,0.07,0.01,0.15,0.01,0.22c0,1.23-1.19,2.23-2.65,2.23
			h-1.27v-0.08h1.27c0.84,0,1.63-0.35,2.1-0.95c0.01-0.01,0.02-0.03,0.03-0.04l0.02-0.03c0.08-0.1,0.14-0.2,0.18-0.3
			c0-0.01,0.01-0.02,0.01-0.02c0-0.01,0.01-0.01,0.01-0.02c0.12-0.25,0.18-0.52,0.18-0.79c0-0.07,0-0.14-0.01-0.21
			c0-0.02,0-0.03-0.01-0.05l-0.01-0.06c-0.01-0.03-0.01-0.07-0.02-0.1c-0.01-0.02-0.01-0.05-0.02-0.07l-0.02-0.06
			c-0.01-0.02-0.01-0.05-0.02-0.07c-0.01-0.03-0.02-0.06-0.03-0.09l-0.02-0.05c-0.01-0.02-0.01-0.04-0.02-0.05
			c-0.02-0.03-0.04-0.07-0.06-0.1l-0.02-0.04c-0.01-0.01-0.01-0.03-0.02-0.04c-0.03-0.04-0.05-0.08-0.08-0.12l-0.01-0.02
			c-0.01-0.01-0.02-0.02-0.02-0.03c-0.03-0.04-0.06-0.08-0.1-0.12c0,0-0.03-0.03-0.04-0.04c-0.04-0.04-0.08-0.08-0.12-0.11
			l-0.01-0.01c0,0-0.01-0.01-0.01-0.01h-0.4c0.11,0.08,0.22,0.17,0.31,0.27c0.01,0.01,0.03,0.03,0.03,0.03
			c0.04,0.04,0.07,0.08,0.11,0.13c0.01,0.01,0.02,0.02,0.03,0.04l0.01,0.01c0.03,0.04,0.05,0.08,0.08,0.12
			c0.01,0.02,0.02,0.04,0.04,0.06c0.02,0.04,0.04,0.08,0.06,0.12c0.01,0.02,0.02,0.05,0.03,0.07c0.02,0.04,0.03,0.08,0.04,0.12
			l0.01,0.02c0.01,0.02,0.01,0.04,0.02,0.05c0.01,0.05,0.02,0.09,0.03,0.14l0,0.02c0,0.01,0.01,0.03,0.01,0.04
			c0.01,0.07,0.01,0.14,0.01,0.21c0,1.05-1.02,1.91-2.27,1.91h-1.27v-0.08h1.27c0.13,0,0.27-0.01,0.4-0.03l0.03,0
			c0.17-0.03,0.34-0.08,0.51-0.15c0.75-0.31,1.21-0.94,1.21-1.64c0-0.06,0-0.13-0.01-0.2c0-0.01,0-0.03-0.01-0.04l0-0.02
			c-0.01-0.05-0.02-0.09-0.03-0.14c-0.01-0.02-0.01-0.05-0.02-0.07c-0.01-0.04-0.03-0.09-0.05-0.13c-0.01-0.02-0.02-0.04-0.02-0.05
			c-0.02-0.05-0.05-0.09-0.07-0.14c0,0-0.02-0.03-0.02-0.04c-0.07-0.12-0.16-0.23-0.26-0.33l-0.03-0.03
			c-0.04-0.04-0.09-0.08-0.13-0.12c-0.01-0.01-0.03-0.02-0.04-0.03c-0.05-0.04-0.09-0.07-0.14-0.1l-0.01-0.01l0-0.01h-0.56
			c0.15,0.05,0.29,0.12,0.43,0.21c0.03,0.02,0.07,0.04,0.1,0.07l0.02,0.02c0.03,0.02,0.06,0.05,0.09,0.07l0.01,0.01
			c0.05,0.04,0.09,0.09,0.14,0.14c0,0,0.03,0.03,0.03,0.04c0.02,0.02,0.03,0.04,0.05,0.06c0.01,0.02,0.03,0.04,0.04,0.06
			c0.01,0.02,0.03,0.04,0.04,0.06c0.02,0.02,0.03,0.05,0.04,0.07l0.01,0.02c0.01,0.01,0.01,0.02,0.02,0.03
			c0.02,0.04,0.04,0.08,0.05,0.13c0,0.01,0.01,0.04,0.01,0.04c0.01,0.03,0.02,0.07,0.03,0.1c0,0.02,0.01,0.03,0.01,0.05
			c0.01,0.03,0.01,0.07,0.02,0.1c0,0,0.01,0.03,0.01,0.04c0.01,0.05,0.01,0.1,0.01,0.15c0,0.19-0.04,0.38-0.12,0.56l-0.01,0.02
			c-0.01,0.01-0.01,0.02-0.02,0.04l-0.01,0.02c-0.3,0.57-0.98,0.94-1.72,0.94h-1.27v-3.04h-0.26v8.17h0.26v-2.96h5.82v2.96h0.27
			v-8.17h-0.27V143.8z M118.97,145.74h-3.01l0.07-0.02c0.06-0.02,0.11-0.04,0.17-0.06l0,0h2.76V145.74z M118.97,145.41h-2.23
			l0.07-0.04c0.03-0.02,0.06-0.03,0.08-0.05l0,0h2.07V145.41z M118.97,145.09h-1.7l0.05-0.03c0.02-0.02,0.04-0.03,0.07-0.05l0,0
			h1.59V145.09z M118.97,144.77h-1.3l0.02-0.02c0.01-0.01,0.07-0.06,0.07-0.06h1.21V144.77z M118.97,144.45h-0.99l0.07-0.08h0.91
			V144.45z M118.97,144.12h-0.73l0.06-0.08h0.68V144.12z"/>
		<rect x="110.64" y="140.76" class="st1" width="0.26" height="8.17"/>
		<rect x="112.51" y="140.76" class="st1" width="0.26" height="8.17"/>
		<rect x="112.13" y="140.76" class="st1" width="0.26" height="8.17"/>
		<rect x="111.76" y="140.76" class="st1" width="0.26" height="8.17"/>
		<rect x="119.73" y="140.76" class="st1" width="0.26" height="8.17"/>
		<rect x="120.1" y="140.76" class="st1" width="0.26" height="8.17"/>
		<rect x="120.48" y="140.76" class="st1" width="0.26" height="8.17"/>
		<rect x="120.85" y="140.76" class="st1" width="0.26" height="8.17"/>
		<polygon class="st1" points="145.93,148.93 147.14,145.57 147.14,148.93 147.41,148.93 147.41,144.83 147.52,144.53 
			147.52,148.93 147.78,148.93 147.78,143.79 147.89,143.49 147.89,148.93 148.16,148.93 148.16,142.75 148.27,142.45 
			148.27,148.93 148.53,148.93 148.53,141.71 148.64,141.41 148.64,148.93 148.91,148.93 148.91,140.76 148.6,140.76 145.65,148.93 
					"/>
		<polygon class="st1" points="141.85,140.76 144.79,148.93 145.18,148.93 148.13,140.76 147.85,140.76 144.99,148.7 144.98,148.66 
			144.94,148.56 147.75,140.76 147.47,140.76 144.8,148.18 144.79,148.14 144.75,148.04 147.38,140.76 147.1,140.76 144.61,147.66 
			144.6,147.63 144.57,147.52 147,140.76 146.73,140.76 144.43,147.14 144.41,147.11 144.38,147 146.63,140.76 146.35,140.76 
			144.24,146.62 142.13,140.76 		"/>
		<polygon class="st1" points="145.55,148.93 148.5,140.76 148.22,140.76 145.28,148.93 		"/>
		<rect x="149.02" y="140.76" class="st1" width="0.26" height="8.17"/>
		<path class="st1" d="M127.23,143.8h-0.6l0.01-0.02c0.27-0.49,0.41-1.02,0.41-1.58c0-0.06,0-0.12-0.01-0.18
			c0-0.01-0.01-0.07-0.01-0.07c0-0.04-0.01-0.08-0.01-0.13l-0.01-0.05c-0.01-0.05-0.01-0.1-0.02-0.14l-0.01-0.03
			c-0.01-0.05-0.02-0.1-0.03-0.16l0-0.02c-0.01-0.06-0.03-0.11-0.05-0.17c-0.02-0.06-0.04-0.11-0.06-0.18
			c-0.02-0.06-0.04-0.11-0.07-0.17c-0.02-0.05-0.05-0.11-0.07-0.16h-0.29c0.03,0.05,0.05,0.1,0.08,0.15l0.01,0.01
			c0.02,0.05,0.05,0.1,0.07,0.16l0.01,0.02c0.02,0.05,0.04,0.1,0.05,0.15l0.01,0.04c0.02,0.05,0.03,0.09,0.04,0.14l0.01,0.04
			c0.01,0.04,0.02,0.09,0.03,0.13l0.01,0.05c0.01,0.04,0.02,0.09,0.02,0.13c0,0,0.01,0.04,0.01,0.06c0.01,0.04,0.01,0.09,0.01,0.14
			l0,0.05c0,0.06,0.01,0.13,0.01,0.19c0,1.94-1.88,3.52-4.18,3.52h-1.11v-0.08h1.11c2.24,0,4.06-1.54,4.06-3.43
			c0-0.06,0-0.12-0.01-0.19l-0.01-0.06c0-0.04-0.01-0.09-0.01-0.13l-0.01-0.06c-0.01-0.04-0.01-0.08-0.02-0.12
			c0-0.02-0.01-0.03-0.01-0.06c-0.01-0.04-0.02-0.08-0.03-0.12c-0.01-0.02-0.01-0.04-0.02-0.06c-0.01-0.04-0.02-0.08-0.04-0.12
			l-0.02-0.05c-0.01-0.04-0.03-0.08-0.05-0.13l-0.02-0.04c-0.02-0.05-0.04-0.09-0.06-0.14l-0.01-0.03c-0.03-0.05-0.05-0.1-0.08-0.16
			h-0.3c0.03,0.05,0.06,0.1,0.08,0.14l0.01,0.01c0.03,0.05,0.06,0.11,0.08,0.17c0.05,0.12,0.1,0.24,0.13,0.36l0,0.02
			c0.02,0.05,0.03,0.1,0.04,0.16l0.01,0.05c0.01,0.04,0.02,0.09,0.02,0.13c0,0.02,0.01,0.04,0.01,0.06
			c0.01,0.04,0.01,0.09,0.01,0.13l0,0.05c0,0.06,0.01,0.12,0.01,0.18c0,1.76-1.7,3.2-3.8,3.2h-1.11v-0.08h1.11
			c2.03,0,3.68-1.4,3.68-3.11c0-0.06,0-0.12-0.01-0.18l0-0.06c0-0.04-0.01-0.08-0.01-0.13c0-0.02-0.01-0.04-0.01-0.06
			c-0.01-0.04-0.01-0.08-0.02-0.13l-0.01-0.05c-0.01-0.06-0.03-0.11-0.04-0.17c-0.02-0.06-0.04-0.12-0.06-0.17l-0.01-0.03
			c-0.02-0.05-0.04-0.09-0.06-0.14l-0.02-0.04c-0.02-0.04-0.04-0.09-0.07-0.14l-0.01-0.02c-0.03-0.05-0.06-0.1-0.08-0.15h-0.31
			c0.03,0.04,0.06,0.09,0.09,0.13l0.02,0.03c0.03,0.05,0.05,0.09,0.08,0.15l0.01,0.01c0.03,0.05,0.05,0.11,0.08,0.17l0.01,0.03
			c0.02,0.05,0.04,0.09,0.05,0.14l0.01,0.04c0.02,0.05,0.03,0.1,0.04,0.15l0.01,0.02c0.01,0.06,0.03,0.12,0.04,0.17l0.01,0.05
			c0.01,0.05,0.01,0.09,0.02,0.14l0,0.05c0,0.06,0.01,0.12,0.01,0.18c0,1.58-1.53,2.87-3.42,2.87h-1.11v-0.08h1.11
			c1.82,0,3.3-1.25,3.3-2.79c0-0.06,0-0.12-0.01-0.18l0-0.05c0-0.05-0.01-0.1-0.02-0.14l-0.01-0.04c-0.01-0.06-0.02-0.12-0.04-0.17
			l-0.01-0.03c-0.01-0.05-0.03-0.1-0.04-0.15l-0.01-0.03c-0.04-0.11-0.09-0.22-0.14-0.33l-0.01-0.02c-0.03-0.05-0.06-0.1-0.09-0.16
			c-0.03-0.05-0.07-0.1-0.11-0.16h-0.32c0.03,0.04,0.06,0.08,0.1,0.12l0.03,0.04c0.03,0.05,0.06,0.09,0.09,0.14l0.02,0.04
			c0.05,0.08,0.09,0.17,0.13,0.26l0.01,0.03c0.01,0.02,0.01,0.03,0.02,0.05c0.01,0.03,0.02,0.05,0.03,0.08l0.01,0.03
			c0.01,0.04,0.03,0.08,0.04,0.12c0.01,0.03,0.02,0.06,0.02,0.1c0.01,0.05,0.02,0.1,0.03,0.15l0,0.02c0,0.02,0.01,0.04,0.01,0.06
			c0.01,0.09,0.01,0.16,0.01,0.24c0,1.41-1.36,2.55-3.03,2.55h-1.11v-0.08h1.11c1.61,0,2.92-1.11,2.92-2.47c0-0.07,0-0.15-0.01-0.23
			c0-0.02-0.01-0.04-0.01-0.06l0-0.03c-0.01-0.05-0.01-0.09-0.03-0.14c-0.01-0.03-0.02-0.07-0.02-0.1
			c-0.01-0.04-0.02-0.07-0.03-0.11c-0.01-0.04-0.03-0.08-0.04-0.12c0-0.01-0.03-0.06-0.03-0.06c-0.1-0.23-0.23-0.44-0.39-0.63h-0.35
			c0.04,0.04,0.08,0.08,0.12,0.13l0.01,0.01c0.04,0.05,0.08,0.1,0.12,0.15l0.02,0.02c0.03,0.05,0.07,0.1,0.1,0.15l0.02,0.04
			c0.03,0.05,0.05,0.09,0.07,0.14c0.01,0.01,0.01,0.03,0.02,0.04l0.01,0.02c0.02,0.04,0.04,0.09,0.05,0.13
			c0.01,0.02,0.01,0.04,0.02,0.06l0.01,0.04c0.01,0.03,0.02,0.06,0.03,0.1c0.01,0.03,0.01,0.07,0.02,0.1l0.01,0.05
			c0,0.02,0.01,0.04,0.01,0.06c0.01,0.08,0.01,0.15,0.01,0.22c0,1.23-1.19,2.23-2.65,2.23h-1.11v-0.08h1.11
			c1.4,0,2.53-0.96,2.53-2.14c0-0.07,0-0.14-0.01-0.21c0-0.02-0.01-0.04-0.01-0.06l-0.01-0.06c0-0.03-0.01-0.05-0.01-0.08
			c-0.01-0.04-0.02-0.07-0.03-0.11l-0.01-0.05c0-0.01-0.01-0.03-0.01-0.04c-0.02-0.05-0.04-0.1-0.06-0.15c0,0-0.01-0.03-0.02-0.04
			c-0.02-0.05-0.05-0.1-0.09-0.16l-0.01-0.02c-0.03-0.05-0.07-0.11-0.12-0.17c-0.04-0.05-0.09-0.11-0.13-0.16
			c-0.05-0.05-0.1-0.1-0.14-0.15h-0.4c0.11,0.08,0.22,0.17,0.31,0.27c0.01,0.01,0.03,0.03,0.03,0.03c0.04,0.04,0.08,0.08,0.11,0.13
			c0.01,0.01,0.02,0.02,0.03,0.04l0.01,0.02c0.03,0.04,0.06,0.08,0.08,0.12c0.01,0.02,0.02,0.04,0.04,0.06
			c0.02,0.04,0.04,0.08,0.06,0.12c0.01,0.02,0.02,0.05,0.03,0.07c0.02,0.04,0.03,0.08,0.04,0.12l0.01,0.02
			c0.01,0.02,0.01,0.03,0.02,0.05c0.01,0.05,0.02,0.09,0.03,0.14l0,0.02c0,0.01,0.01,0.03,0.01,0.04c0.01,0.07,0.01,0.14,0.01,0.21
			c0,1.05-1.02,1.91-2.27,1.91h-1.11v-0.08h1.11c1.19,0,2.15-0.82,2.15-1.82c0-0.06,0-0.13-0.01-0.21c0-0.01,0-0.03-0.01-0.04
			l0-0.02c-0.01-0.05-0.02-0.09-0.03-0.14c-0.01-0.02-0.01-0.04-0.02-0.06c-0.01-0.05-0.03-0.09-0.05-0.15
			c-0.01-0.01-0.01-0.03-0.02-0.04c-0.02-0.05-0.05-0.1-0.08-0.15l-0.01-0.02c-0.15-0.24-0.37-0.46-0.62-0.62h-0.56
			c0.15,0.05,0.29,0.12,0.43,0.21c0.03,0.02,0.07,0.04,0.1,0.07l0.02,0.02c0.03,0.02,0.06,0.05,0.09,0.07l0.01,0.01
			c0.05,0.04,0.1,0.09,0.14,0.14c0,0,0.03,0.03,0.03,0.04c0.02,0.02,0.03,0.04,0.05,0.06c0.01,0.02,0.03,0.04,0.04,0.06
			c0.01,0.02,0.03,0.04,0.04,0.06c0.01,0.02,0.03,0.05,0.04,0.07l0.01,0.02c0.01,0.01,0.01,0.02,0.02,0.03
			c0.02,0.04,0.04,0.08,0.05,0.13c0,0.01,0.01,0.04,0.01,0.04c0.01,0.03,0.02,0.07,0.03,0.1c0,0.02,0.01,0.03,0.01,0.05
			c0.01,0.03,0.01,0.07,0.02,0.1c0,0,0.01,0.03,0.01,0.04c0.01,0.05,0.01,0.1,0.01,0.15c0,0.87-0.85,1.58-1.89,1.58h-1.11v-3.04
			h-0.26v8.17h0.26v-2.96h1.11c0.33,0,0.65-0.03,0.98-0.09c0.56,0.29,0.9,0.8,0.9,1.35l0,0.01v1.69h0.26v-1.7l0-0.01
			c0-0.55-0.3-1.06-0.8-1.41l-0.02-0.01c0,0,0.07-0.02,0.09-0.03l0.03-0.01c0.52,0.36,0.82,0.9,0.82,1.46l0,0.01v1.69h0.26v-1.7
			l0-0.01c0-0.59-0.28-1.13-0.78-1.54l-0.02-0.01l0.1-0.04l0.01,0c0.51,0.42,0.8,1,0.8,1.6l0,0.01v1.69h0.26v-1.7l0-0.01
			c0-0.63-0.29-1.23-0.8-1.68l-0.01-0.01l0.1-0.05l0.01,0.01c0.53,0.48,0.83,1.1,0.83,1.75l0,0.01v1.69h0.26v-1.7l0-0.01
			c0-0.69-0.3-1.35-0.85-1.86l-0.01-0.01l0.09-0.05l0.01,0.01c0.57,0.53,0.88,1.21,0.88,1.92l0,1.7h0.26l0-1.71
			c0-0.76-0.33-1.48-0.92-2.05l-0.01-0.01l0.09-0.06l0.01,0.01c0.62,0.58,0.96,1.34,0.96,2.12v1.7h0.26l0-1.7
			c0-0.84-0.36-1.64-1.01-2.27l-0.01-0.01l0.09-0.07l0.01,0.01c0.67,0.65,1.05,1.48,1.05,2.34v1.7h0.26v-1.7
			c0-0.43-0.08-0.84-0.25-1.24l-0.01-0.02h0.44v2.96h0.26v-8.17l-0.26,0V143.8z M127.23,145.74h-0.55l-0.04-0.08h0.6V145.74z
			 M127.23,145.41l-0.74-0.01l-0.05-0.08h0.79V145.41z M127.23,145.09l-0.98,0l-0.07-0.08h1.04V145.09z M127.23,144.77l-1.27,0
			l-0.05-0.05l0.03-0.03h1.29V144.77z M127.23,144.45h-1.06l0.07-0.08h0.99V144.45z M127.23,144.12h-0.81l0.06-0.08h0.75V144.12z"/>
		<rect x="127.6" y="140.76" class="st1" width="0.26" height="8.17"/>
		<rect x="127.98" y="140.76" class="st1" width="0.26" height="8.17"/>
		<rect x="128.35" y="140.76" class="st1" width="0.26" height="8.17"/>
		<rect x="128.72" y="140.76" class="st1" width="0.26" height="8.17"/>
		<rect x="129.1" y="140.76" class="st1" width="0.26" height="8.17"/>
		<path class="st1" d="M136.48,148.42l0.01-0.01c0.04-0.05,0.07-0.11,0.1-0.18l0.01-0.03c0.03-0.05,0.05-0.11,0.08-0.17
			c0,0,0.01-0.03,0.02-0.04c0.02-0.06,0.04-0.11,0.05-0.17l0.01-0.02c0-0.01,0.01-0.02,0.01-0.03c0.01-0.06,0.02-0.11,0.03-0.17
			l0-0.03c0-0.01,0-0.02,0.01-0.03c0.01-0.08,0.01-0.16,0.01-0.23c0-1.21-1.12-2.2-2.49-2.22l-0.01,0c-1.95-0.01-3.53-1.39-3.53-3.1
			c0-0.05,0-0.11,0-0.16l0-0.04c0-0.04,0.01-0.08,0.01-0.13l0-0.03c0.01-0.04,0.01-0.09,0.02-0.13l0-0.02
			c0.01-0.05,0.02-0.09,0.03-0.13l0-0.01c0.01-0.05,0.02-0.09,0.04-0.15c0.01-0.05,0.03-0.1,0.05-0.15
			c0.03-0.09,0.07-0.18,0.12-0.27h-0.29c-0.02,0.04-0.04,0.09-0.06,0.14c-0.02,0.05-0.04,0.09-0.05,0.15
			c-0.02,0.05-0.03,0.09-0.04,0.14l-0.01,0.02c-0.01,0.04-0.02,0.09-0.03,0.13l-0.01,0.04c-0.01,0.04-0.02,0.08-0.02,0.12
			l-0.01,0.07c0,0.03-0.01,0.06-0.01,0.09c0,0.02,0,0.04-0.01,0.07l0,0.05c0,0.02,0,0.03,0,0.05c0,0.05,0,0.11,0,0.17
			c0,1.82,1.69,3.32,3.77,3.34l0.01,0c1.24,0.01,2.25,0.89,2.25,1.99c0,0.05,0,0.11-0.01,0.19l0,0.03
			c-0.01,0.06-0.02,0.12-0.03,0.17l-0.01,0.03c-0.01,0.05-0.03,0.1-0.04,0.15l-0.01,0.03c-0.02,0.05-0.04,0.11-0.07,0.16l-0.02,0.04
			c-0.02,0.05-0.05,0.1-0.08,0.14l-0.01,0.01c-0.03,0.05-0.06,0.09-0.1,0.14l-0.03,0.04c-0.03,0.04-0.07,0.09-0.11,0.13l-0.03,0.03
			c-0.03,0.03-0.07,0.07-0.11,0.1l-0.03,0.03c-0.04,0.04-0.09,0.07-0.13,0.11l-0.04,0.03c-0.04,0.03-0.08,0.05-0.12,0.08h0.42
			c0.13-0.1,0.24-0.21,0.34-0.33C136.39,148.54,136.44,148.48,136.48,148.42z"/>
		<path class="st1" d="M136.73,148.69l0.02-0.03c0.03-0.04,0.05-0.08,0.08-0.12c0.02-0.02,0.03-0.05,0.04-0.07l0.01-0.02
			c0.02-0.04,0.05-0.08,0.07-0.12c0.02-0.03,0.03-0.06,0.05-0.09c0.02-0.04,0.04-0.08,0.05-0.13c0.01-0.03,0.02-0.06,0.04-0.1
			c0.02-0.05,0.03-0.09,0.04-0.14l0.01-0.02c0.01-0.02,0.01-0.05,0.02-0.07c0.01-0.05,0.02-0.11,0.03-0.16l0-0.03
			c0-0.02,0.01-0.03,0.01-0.05c0.01-0.09,0.01-0.17,0.01-0.25c0-1.39-1.29-2.54-2.88-2.56l-0.01,0c-1.74-0.01-3.15-1.24-3.15-2.77
			c0-0.05,0-0.1,0.01-0.16l0-0.05c0-0.04,0.01-0.07,0.01-0.11l0.01-0.05c0.01-0.04,0.01-0.07,0.02-0.11l0.01-0.04
			c0.01-0.04,0.02-0.08,0.03-0.13l0.01-0.02c0.05-0.2,0.13-0.38,0.24-0.56l-0.29-0.01c-0.02,0.05-0.05,0.09-0.07,0.14
			c-0.02,0.05-0.04,0.09-0.06,0.15c-0.02,0.04-0.03,0.09-0.05,0.14l-0.01,0.02c-0.01,0.04-0.03,0.09-0.04,0.14l0,0.01
			c-0.01,0.04-0.02,0.08-0.03,0.12l-0.01,0.03c-0.01,0.04-0.01,0.08-0.02,0.12l-0.01,0.04c0,0.04-0.01,0.08-0.01,0.12l0,0.04
			c0,0.05,0,0.11,0,0.16c0,1.64,1.52,2.99,3.39,3l0.01,0c1.45,0.01,2.64,1.04,2.64,2.32c0,0.08,0,0.16-0.01,0.24
			c0,0.01,0,0.01,0,0.02l0,0.02c-0.01,0.06-0.02,0.13-0.03,0.19c0,0.01-0.01,0.03-0.01,0.03c-0.02,0.08-0.04,0.14-0.06,0.19
			l-0.01,0.02c-0.13,0.34-0.34,0.66-0.63,0.92h0.35l0.01-0.01c0.01-0.01,0.03-0.03,0.04-0.04c0.04-0.04,0.07-0.08,0.11-0.13
			C136.71,148.73,136.72,148.71,136.73,148.69z"/>
		<path class="st1" d="M137.36,148.36c0.03-0.06,0.05-0.12,0.08-0.19c0.02-0.06,0.04-0.13,0.06-0.19l0.01-0.04
			c0.02-0.06,0.03-0.13,0.04-0.19c0.01-0.06,0.02-0.13,0.03-0.2l0-0.05c0.01-0.07,0.01-0.13,0.01-0.2c0-1.58-1.46-2.87-3.26-2.89
			l-0.01,0c-1.53-0.01-2.77-1.09-2.77-2.43c0-0.06,0-0.13,0.01-0.22c0-0.02,0-0.04,0.01-0.07c0.01-0.05,0.02-0.11,0.03-0.16
			c0.01-0.03,0.01-0.06,0.02-0.09c0.01-0.05,0.02-0.09,0.04-0.13c0.01-0.04,0.03-0.07,0.04-0.11c0.01-0.02,0.03-0.06,0.03-0.06
			c0.06-0.13,0.12-0.26,0.2-0.38l-0.3-0.01c-0.03,0.05-0.05,0.1-0.08,0.15c-0.02,0.03-0.03,0.07-0.05,0.11
			c-0.02,0.04-0.03,0.08-0.05,0.12c-0.02,0.04-0.03,0.08-0.04,0.12c-0.02,0.05-0.03,0.1-0.05,0.16l0,0.01
			c0,0.02-0.01,0.04-0.01,0.06c-0.02,0.07-0.03,0.14-0.04,0.22l-0.01,0.05c-0.01,0.09-0.01,0.17-0.01,0.24c0,1.45,1.35,2.65,3,2.67
			l0.01,0c1.67,0.01,3.02,1.19,3.02,2.66c0,0.08,0,0.16-0.01,0.25c0,0.02-0.01,0.04-0.01,0.06l0,0.03c-0.01,0.05-0.02,0.1-0.03,0.15
			c-0.01,0.04-0.02,0.07-0.03,0.11c-0.01,0.04-0.02,0.08-0.04,0.12c-0.01,0.04-0.03,0.08-0.04,0.12c-0.01,0.03-0.03,0.07-0.04,0.1
			c-0.02,0.04-0.04,0.09-0.06,0.13c-0.01,0.01-0.01,0.03-0.02,0.04l-0.01,0.02c-0.1,0.18-0.21,0.34-0.34,0.49h0.33
			c0.04-0.05,0.08-0.11,0.12-0.17l0.01-0.02c0.08-0.12,0.14-0.24,0.2-0.36L137.36,148.36z"/>
		<path class="st1" d="M137.77,148.35c0.02-0.06,0.04-0.11,0.06-0.17l0.01-0.03c0.04-0.13,0.07-0.26,0.09-0.39l0.01-0.05
			c0.01-0.05,0.01-0.1,0.02-0.15l0-0.06c0-0.07,0.01-0.13,0.01-0.2c0-1.76-1.63-3.21-3.64-3.23l-0.01,0
			c-1.32-0.01-2.38-0.94-2.38-2.1c0-0.06,0-0.12,0.01-0.19c0-0.02,0-0.03,0.01-0.05l0-0.02c0.01-0.04,0.01-0.08,0.02-0.12
			c0.01-0.03,0.01-0.06,0.02-0.09c0.01-0.03,0.02-0.06,0.03-0.09l0-0.01c0.01-0.03,0.02-0.06,0.03-0.08c0-0.01,0.02-0.05,0.02-0.05
			c0.06-0.14,0.13-0.28,0.22-0.4c0.03-0.04,0.06-0.08,0.09-0.11l-0.32,0c-0.09,0.13-0.16,0.26-0.22,0.4
			c-0.01,0.02-0.02,0.04-0.03,0.06c-0.01,0.04-0.03,0.07-0.04,0.11c-0.02,0.06-0.04,0.11-0.05,0.17c0,0.01-0.01,0.03-0.01,0.04
			l0,0.02c-0.01,0.05-0.02,0.1-0.03,0.14c0,0.02-0.01,0.04-0.01,0.07c-0.01,0.08-0.01,0.15-0.01,0.21c0,1.27,1.18,2.32,2.62,2.33
			l0.01,0c1.88,0.01,3.4,1.34,3.4,2.99c0,0.07,0,0.13-0.01,0.2l0,0.05c-0.01,0.06-0.01,0.13-0.03,0.2c-0.01,0.07-0.03,0.13-0.04,0.2
			l-0.01,0.04c-0.02,0.06-0.04,0.13-0.06,0.19c-0.02,0.07-0.05,0.13-0.08,0.19l-0.01,0.02c-0.06,0.13-0.12,0.25-0.21,0.38
			c-0.03,0.05-0.07,0.11-0.11,0.16h0.31c0.04-0.06,0.07-0.12,0.11-0.18c0.07-0.12,0.13-0.25,0.18-0.38L137.77,148.35z"/>
		<polygon class="st1" points="139.57,140.76 139.57,148.93 139.84,148.93 139.84,141.41 139.95,141.72 139.95,148.93 
			140.21,148.93 140.21,142.45 140.32,142.76 140.32,148.93 140.58,148.93 140.58,143.49 140.7,143.8 140.7,148.93 140.96,148.93 
			140.96,144.53 141.07,144.84 141.07,148.93 141.33,148.93 141.33,145.57 142.55,148.93 142.82,148.93 139.88,140.76 		"/>
		<path class="st1" d="M135.89,148.57l0.02-0.02c0.02-0.03,0.05-0.05,0.07-0.08c0.01-0.01,0.02-0.02,0.04-0.04
			c0.03-0.04,0.06-0.08,0.09-0.12c0.02-0.02,0.03-0.05,0.05-0.07c0.01-0.02,0.03-0.04,0.04-0.07c0.02-0.03,0.04-0.07,0.05-0.1
			c0.01-0.02,0.02-0.04,0.03-0.06c0.02-0.04,0.03-0.08,0.05-0.12c0.01-0.02,0.01-0.03,0.02-0.05c0.02-0.05,0.03-0.1,0.04-0.15
			l0-0.01c0.01-0.05,0.02-0.1,0.03-0.16c0-0.01,0-0.03,0.01-0.04c0.01-0.06,0.01-0.12,0.01-0.17c0-1.02-0.95-1.87-2.11-1.89l-0.01,0
			c-2.16-0.01-3.91-1.55-3.91-3.44c0-0.06,0-0.11,0-0.17c0-0.02,0-0.03,0-0.05l0-0.04c0-0.03,0-0.05,0.01-0.08
			c0-0.03,0.01-0.05,0.01-0.08c0,0,0.01-0.06,0.01-0.08c0.01-0.04,0.01-0.07,0.02-0.11l0.01-0.05c0.01-0.04,0.02-0.08,0.03-0.12
			l0.01-0.04c0.01-0.04,0.02-0.08,0.04-0.13l0.01-0.02c0.01-0.04,0.03-0.09,0.05-0.14c0.02-0.04,0.03-0.08,0.05-0.12h-0.28
			c-0.07,0.18-0.13,0.37-0.17,0.57l-0.01,0.04c-0.02,0.09-0.03,0.19-0.04,0.28l0,0.04c-0.01,0.11-0.01,0.2-0.01,0.29
			c0,0.74,0.25,1.45,0.72,2.06l0.03,0.04l-0.04-0.02c-0.35-0.15-0.72-0.23-1.1-0.25l-0.01,0v-3.05l-0.26,0v8.17h0.26v-2.89
			l0.02,0.01c0.06,0.04,0.1,0.1,0.1,0.17v1.09c0,0.07,0,0.14,0.01,0.21c0,0.01,0,0.06,0,0.06c0,0.05,0.01,0.1,0.01,0.15l0.01,0.06
			c0.01,0.05,0.01,0.1,0.02,0.15l0.01,0.05c0.01,0.05,0.02,0.1,0.03,0.15l0.01,0.05c0.01,0.05,0.03,0.11,0.05,0.16l0.01,0.03
			c0.02,0.06,0.04,0.11,0.06,0.17l0.01,0.02c0.02,0.06,0.05,0.12,0.08,0.19c0.03,0.06,0.05,0.11,0.08,0.17l0.01,0.01h0.29
			c-0.14-0.24-0.24-0.49-0.32-0.76l-0.01-0.04c-0.01-0.05-0.03-0.1-0.04-0.16l-0.01-0.06c-0.01-0.05-0.02-0.1-0.02-0.14l-0.01-0.06
			c-0.01-0.05-0.01-0.1-0.01-0.15c0,0,0-0.05-0.01-0.06c0-0.07-0.01-0.14-0.01-0.21v-1.09c0-0.2-0.15-0.37-0.37-0.43l-0.01,0v-0.09
			l0.01,0c0.29,0.06,0.49,0.27,0.49,0.52v1.09c0,0.07,0,0.14,0.01,0.2l0.01,0.06c0,0.05,0.01,0.1,0.02,0.14l0.01,0.06
			c0.01,0.05,0.02,0.1,0.03,0.15l0.01,0.05c0.01,0.06,0.03,0.11,0.04,0.17l0.01,0.02c0.06,0.2,0.13,0.4,0.23,0.59
			c0.03,0.06,0.07,0.12,0.09,0.18h0.31c-0.11-0.17-0.21-0.36-0.28-0.55l-0.01-0.02c-0.02-0.06-0.04-0.12-0.06-0.18l-0.01-0.02
			c-0.02-0.07-0.04-0.14-0.06-0.21c-0.01-0.06-0.03-0.13-0.04-0.19l-0.01-0.05c-0.01-0.05-0.01-0.1-0.02-0.15l0-0.06
			c0-0.07-0.01-0.13-0.01-0.2v-1.09c0-0.38-0.32-0.7-0.75-0.76l-0.01,0v-0.09l0.01,0c0.49,0.06,0.87,0.43,0.87,0.86v1.09
			c0,0.07,0,0.13,0.01,0.2l0,0.06c0,0.05,0.01,0.1,0.02,0.15l0.01,0.05c0.02,0.13,0.05,0.26,0.09,0.39l0.01,0.03
			c0.02,0.06,0.04,0.12,0.06,0.17l0.01,0.02c0.05,0.13,0.11,0.26,0.19,0.38c0.04,0.06,0.07,0.12,0.1,0.17h0.32
			c-0.04-0.05-0.07-0.1-0.11-0.17c-0.08-0.12-0.14-0.24-0.21-0.38l-0.01-0.01c-0.03-0.06-0.05-0.13-0.08-0.2
			c-0.02-0.06-0.04-0.12-0.06-0.19l-0.01-0.04c-0.02-0.06-0.03-0.13-0.04-0.21c-0.01-0.06-0.02-0.13-0.02-0.19l0-0.05
			c-0.01-0.07-0.01-0.13-0.01-0.2v-1.09c0-0.56-0.49-1.03-1.13-1.1l-0.01,0v-0.09l0.01,0c0.71,0.06,1.25,0.57,1.25,1.19v1.09
			c0,0.07,0,0.13,0.01,0.2l0,0.05c0.01,0.07,0.01,0.13,0.03,0.2c0.01,0.06,0.03,0.13,0.04,0.19l0.01,0.04
			c0.02,0.06,0.04,0.13,0.06,0.19c0.02,0.06,0.05,0.12,0.08,0.19l0.01,0.02c0.06,0.12,0.12,0.24,0.2,0.37l0.01,0.01
			c0.04,0.06,0.08,0.12,0.11,0.17h0.34c-0.13-0.15-0.25-0.31-0.34-0.49l-0.01-0.02c-0.01-0.01-0.01-0.03-0.02-0.04
			c-0.02-0.04-0.04-0.09-0.06-0.13c-0.01-0.03-0.03-0.07-0.04-0.1c-0.02-0.04-0.03-0.08-0.04-0.12c-0.01-0.04-0.03-0.08-0.04-0.12
			c-0.01-0.04-0.02-0.07-0.03-0.11c-0.01-0.05-0.02-0.1-0.03-0.15l0-0.03c0-0.02-0.01-0.04-0.01-0.06
			c-0.01-0.09-0.01-0.17-0.01-0.25v-1.09c0-0.74-0.67-1.36-1.52-1.43l-0.01,0v-0.09l0.01,0c0.91,0.06,1.63,0.73,1.63,1.52v1.09
			c0,0.08,0,0.16,0.01,0.25c0,0.02,0,0.03,0.01,0.05l0,0.03c0.01,0.05,0.02,0.11,0.03,0.16c0.01,0.02,0.01,0.05,0.02,0.07l0.01,0.02
			c0.01,0.05,0.03,0.09,0.04,0.14c0.01,0.03,0.02,0.06,0.04,0.1c0.02,0.04,0.03,0.09,0.05,0.13c0.01,0.03,0.03,0.06,0.05,0.09
			c0.02,0.04,0.04,0.08,0.07,0.12l0.01,0.01c0.01,0.03,0.03,0.05,0.05,0.08c0.03,0.04,0.05,0.08,0.08,0.12l0.02,0.03
			c0.01,0.02,0.03,0.04,0.04,0.06c0.03,0.04,0.07,0.08,0.11,0.13c0.01,0.01,0.03,0.03,0.04,0.04l0.01,0.01h0.36
			c-0.29-0.26-0.51-0.57-0.63-0.92l-0.01-0.02c-0.02-0.05-0.04-0.12-0.06-0.19c0,0-0.01-0.03-0.01-0.03
			c-0.02-0.07-0.03-0.13-0.03-0.19l0-0.02c0-0.01,0-0.01,0-0.02c-0.01-0.08-0.01-0.16-0.01-0.24v-1.09c0-0.92-0.83-1.69-1.9-1.75
			l-0.01,0v-0.09l0.01,0c1.13,0.06,2.01,0.87,2.01,1.84v1.09c0,0.08,0,0.15,0.01,0.23c0,0.01,0,0.02,0.01,0.03l0,0.03
			c0.01,0.06,0.02,0.12,0.03,0.17c0,0.01,0.01,0.02,0.01,0.03l0.01,0.02c0.02,0.06,0.03,0.11,0.05,0.17c0,0.01,0.02,0.04,0.02,0.04
			c0.03,0.07,0.05,0.12,0.08,0.17l0.01,0.03c0.03,0.06,0.07,0.12,0.1,0.18l0.01,0.01c0.04,0.06,0.09,0.12,0.13,0.18
			c0.1,0.12,0.21,0.23,0.33,0.33H133c-0.04-0.02-0.08-0.05-0.12-0.08l-0.04-0.03c-0.05-0.03-0.09-0.07-0.13-0.11l-0.03-0.03
			c-0.04-0.03-0.07-0.07-0.11-0.1l-0.03-0.03c-0.04-0.04-0.07-0.08-0.11-0.13l-0.03-0.04c-0.03-0.05-0.07-0.09-0.1-0.14l-0.01-0.01
			c-0.03-0.05-0.05-0.09-0.08-0.14l-0.02-0.04c-0.02-0.05-0.05-0.1-0.07-0.16l-0.01-0.03c-0.02-0.05-0.03-0.1-0.05-0.16l0-0.02
			c-0.01-0.05-0.02-0.11-0.03-0.17l0-0.04c-0.01-0.07-0.01-0.13-0.01-0.18v-1.09c0-1.1-1-2.02-2.28-2.08l-0.01,0v-0.09l0.01,0
			c1.34,0.07,2.39,1.02,2.39,2.17v1.09c0,0.05,0,0.11,0.01,0.17c0,0.01,0,0.03,0.01,0.04c0.01,0.05,0.02,0.11,0.03,0.16l0,0.02
			c0.01,0.05,0.03,0.1,0.04,0.15c0.01,0.02,0.01,0.03,0.02,0.05c0.02,0.04,0.03,0.08,0.05,0.12c0.01,0.02,0.02,0.04,0.03,0.06
			c0.02,0.03,0.03,0.07,0.05,0.1c0.01,0.02,0.03,0.04,0.04,0.07c0.02,0.02,0.03,0.05,0.05,0.07c0.03,0.04,0.06,0.08,0.1,0.12
			c0.01,0.01,0.02,0.02,0.03,0.04c0.02,0.03,0.05,0.05,0.07,0.08l0.03,0.02c0.05,0.05,0.11,0.1,0.18,0.15
			c0.1,0.08,0.21,0.15,0.33,0.21l0.77,0c-0.89-0.13-1.56-0.81-1.56-1.63v-1.09c0-0.39-0.11-0.76-0.31-1.11l-0.02-0.04l0.04,0.02
			c0.65,0.36,1.41,0.55,2.18,0.56l0.01,0c1.03,0.01,1.87,0.74,1.87,1.65c0,0.81-0.68,1.49-1.56,1.63l0.76,0
			c0.12-0.06,0.23-0.13,0.34-0.22C135.78,148.67,135.83,148.62,135.89,148.57z"/>
		<rect x="139.2" y="140.76" class="st1" width="0.26" height="8.17"/>
		<path class="st1" d="M138.24,148.14c0.02-0.06,0.03-0.11,0.04-0.17l0.01-0.05c0.01-0.05,0.02-0.1,0.03-0.15l0.01-0.06
			c0.01-0.05,0.01-0.1,0.02-0.14l0.01-0.06c0-0.07,0.01-0.14,0.01-0.2c0-1.95-1.8-3.54-4.02-3.56l-0.01,0c-1.1-0.01-2-0.79-2-1.76
			c0-0.06,0-0.12,0.01-0.18c0-0.01,0-0.03,0.01-0.04l0.01-0.05c0-0.03,0.01-0.05,0.01-0.08c0.01-0.03,0.02-0.06,0.02-0.08l0.01-0.05
			c0-0.01,0.01-0.03,0.01-0.04c0.01-0.04,0.03-0.08,0.05-0.12l0.01-0.02c0-0.01,0.01-0.02,0.01-0.02c0.02-0.05,0.05-0.09,0.08-0.14
			l0.01-0.01c0.03-0.05,0.06-0.09,0.1-0.14c0.03-0.04,0.07-0.08,0.11-0.12l0.01-0.01c0.03-0.04,0.07-0.07,0.11-0.1l-0.35,0
			c-0.11,0.12-0.2,0.26-0.27,0.4l-0.01,0.02c-0.02,0.03-0.03,0.07-0.05,0.11c-0.01,0.02-0.02,0.04-0.02,0.06
			c-0.01,0.03-0.02,0.06-0.03,0.09c-0.01,0.03-0.02,0.06-0.03,0.09c-0.01,0.03-0.01,0.06-0.02,0.08c-0.01,0.04-0.01,0.08-0.02,0.11
			l0,0.02c0,0.01,0,0.03-0.01,0.04c-0.01,0.07-0.01,0.13-0.01,0.19c0,1.09,1.01,1.98,2.24,2l0.01,0c2.09,0.01,3.78,1.49,3.78,3.32
			c0,0.07,0,0.14-0.01,0.2l0,0.06c0,0.05-0.01,0.1-0.02,0.16l-0.01,0.05c-0.01,0.06-0.02,0.13-0.04,0.19
			c-0.02,0.07-0.03,0.14-0.05,0.2l-0.01,0.02c-0.02,0.06-0.04,0.12-0.06,0.18l-0.01,0.02c-0.07,0.19-0.17,0.37-0.28,0.55h0.3
			c0.03-0.06,0.07-0.12,0.1-0.18c0.1-0.19,0.17-0.39,0.23-0.59L138.24,148.14z"/>
		<path class="st1" d="M134.33,143.41l-0.01,0c-0.89-0.01-1.62-0.64-1.62-1.43c0-0.05,0-0.11,0.01-0.18c0-0.01,0-0.03,0.01-0.05
			c0.01-0.04,0.02-0.09,0.03-0.13c0,0,0.01-0.03,0.01-0.04c0.02-0.06,0.04-0.11,0.07-0.17c0.02-0.05,0.05-0.09,0.08-0.14l0.02-0.03
			c0.03-0.04,0.06-0.08,0.1-0.13l0.01-0.01c0.04-0.05,0.09-0.09,0.14-0.14c0.04-0.04,0.09-0.07,0.15-0.11l0.02-0.02
			c0.04-0.03,0.08-0.05,0.12-0.07l-0.44,0c-0.05,0.04-0.09,0.08-0.13,0.12c-0.04,0.04-0.08,0.08-0.12,0.13
			c-0.03,0.04-0.07,0.09-0.1,0.13l-0.01,0.01c-0.03,0.04-0.05,0.09-0.08,0.13l-0.01,0.02c-0.02,0.04-0.04,0.08-0.06,0.13l-0.01,0.03
			c-0.01,0.04-0.03,0.08-0.04,0.12c0,0-0.01,0.03-0.01,0.04c-0.01,0.04-0.02,0.08-0.02,0.13l0,0.02c0,0.01,0,0.02,0,0.03
			c-0.01,0.06-0.01,0.12-0.01,0.18c0,0.9,0.83,1.65,1.86,1.66l0.01,0c2.3,0.01,4.16,1.64,4.16,3.66c0,0.07,0,0.14-0.01,0.21
			l-0.01,0.06c0,0.05-0.01,0.1-0.02,0.15c0,0.02,0,0.03-0.01,0.06c-0.01,0.05-0.02,0.1-0.02,0.14l-0.01,0.06
			c-0.01,0.05-0.02,0.11-0.04,0.16l-0.01,0.04c-0.07,0.26-0.18,0.52-0.32,0.76h0.29l0.01-0.01c0.03-0.05,0.06-0.11,0.09-0.18
			c0.03-0.06,0.05-0.12,0.07-0.18l0.01-0.02c0.02-0.06,0.04-0.11,0.06-0.18l0.01-0.03c0.02-0.05,0.03-0.11,0.05-0.16l0.01-0.05
			c0.01-0.05,0.02-0.1,0.03-0.15l0.01-0.05c0.01-0.05,0.02-0.1,0.02-0.15l0.01-0.06c0.01-0.05,0.01-0.1,0.01-0.15c0,0,0-0.05,0-0.06
			c0-0.07,0.01-0.14,0.01-0.21C138.73,145.17,136.76,143.43,134.33,143.41z"/>
		<path class="st1" d="M138.82,142.21h-0.08c-0.13,0-0.23-0.1-0.23-0.23c0-0.09,0-0.18-0.01-0.29l0-0.04
			c-0.01-0.09-0.02-0.19-0.04-0.28l-0.01-0.04c-0.04-0.19-0.1-0.38-0.17-0.57h-0.28c0.02,0.04,0.03,0.08,0.05,0.13
			c0.02,0.04,0.03,0.09,0.05,0.13l0.01,0.02c0.01,0.04,0.03,0.08,0.04,0.13l0.01,0.04c0.01,0.04,0.02,0.08,0.03,0.12l0.01,0.05
			c0.01,0.04,0.01,0.07,0.02,0.11c0,0.02,0.01,0.08,0.01,0.08c0,0.03,0.01,0.05,0.01,0.08c0,0.03,0.01,0.05,0.01,0.08l0,0.01
			c0,0,0,0.06,0.01,0.07c0,0.06,0,0.11,0,0.17c0,0.26,0.22,0.47,0.49,0.47h0.08v0.13h-0.07c-0.34,0-0.62-0.27-0.62-0.6
			c0-0.06,0-0.11,0-0.17c0-0.02,0-0.03,0-0.05l0-0.05c0-0.02,0-0.04-0.01-0.06c0-0.03-0.01-0.06-0.01-0.09l-0.01-0.07
			c-0.01-0.04-0.01-0.08-0.02-0.12l-0.01-0.04c-0.01-0.04-0.02-0.09-0.03-0.13l-0.01-0.02c-0.01-0.05-0.03-0.09-0.05-0.15
			c-0.02-0.05-0.03-0.09-0.05-0.15c-0.02-0.05-0.04-0.09-0.06-0.14h-0.29c0.04,0.09,0.08,0.18,0.12,0.27
			c0.02,0.05,0.03,0.1,0.05,0.15c0.01,0.05,0.03,0.09,0.04,0.14l0,0.01c0.01,0.04,0.02,0.09,0.03,0.15l0,0.01
			c0.01,0.04,0.01,0.08,0.02,0.13l0,0.03c0,0.04,0.01,0.08,0.01,0.13l0,0.04c0,0.05,0,0.11,0,0.16c0,0.46,0.39,0.83,0.87,0.84h0.08
			v0.12h-0.08c-0.55,0-0.99-0.43-0.99-0.96c0-0.05,0-0.11,0-0.16l0-0.04c0-0.04-0.01-0.08-0.01-0.12l-0.01-0.04
			c-0.01-0.04-0.01-0.08-0.02-0.12l-0.01-0.03c-0.01-0.04-0.02-0.08-0.03-0.12l-0.01-0.02c-0.01-0.04-0.02-0.09-0.04-0.13l0-0.01
			c-0.01-0.05-0.03-0.09-0.05-0.14c-0.02-0.05-0.04-0.09-0.06-0.14c-0.02-0.04-0.04-0.09-0.06-0.13h-0.29
			c0.1,0.18,0.18,0.37,0.23,0.56l0.01,0.03c0.01,0.04,0.02,0.08,0.03,0.12l0.01,0.04c0.01,0.04,0.01,0.07,0.02,0.12l0.01,0.04
			c0,0.04,0.01,0.07,0.01,0.11l0,0.05c0,0.05,0.01,0.1,0.01,0.16c0,0.66,0.56,1.2,1.26,1.2h0.08v0.13h-0.07
			c-0.76,0-1.38-0.6-1.38-1.33c0-0.07,0-0.15-0.01-0.24l-0.01-0.05c-0.01-0.07-0.02-0.15-0.04-0.22c0-0.02-0.01-0.04-0.01-0.05
			l0-0.02c-0.01-0.05-0.03-0.1-0.05-0.16c-0.01-0.04-0.03-0.08-0.04-0.12c-0.02-0.04-0.03-0.08-0.05-0.12
			c-0.02-0.04-0.03-0.07-0.05-0.11c-0.03-0.05-0.05-0.1-0.07-0.14h-0.31c0.08,0.12,0.15,0.24,0.2,0.38c0,0,0.02,0.04,0.02,0.06
			c0.01,0.04,0.03,0.07,0.04,0.11c0.01,0.04,0.03,0.09,0.04,0.13c0.01,0.03,0.02,0.06,0.02,0.1c0.01,0.05,0.02,0.11,0.03,0.16
			c0,0.02,0.01,0.04,0.01,0.07c0.01,0.08,0.01,0.15,0.01,0.22c0,0.87,0.74,1.57,1.64,1.57h0.07v0.12h-0.08
			c-0.97,0-1.76-0.76-1.76-1.69c0-0.06,0-0.13-0.01-0.21c0-0.02-0.01-0.04-0.01-0.07c-0.01-0.05-0.02-0.1-0.03-0.14l0-0.02
			c0-0.01-0.01-0.03-0.01-0.04c-0.01-0.06-0.03-0.11-0.05-0.17c-0.01-0.04-0.03-0.07-0.04-0.11c-0.01-0.02-0.02-0.04-0.03-0.06
			c-0.06-0.14-0.13-0.27-0.22-0.39h-0.32c0.03,0.04,0.06,0.08,0.09,0.12c0.09,0.12,0.16,0.26,0.22,0.4c0,0,0.02,0.04,0.02,0.05
			c0.01,0.03,0.02,0.06,0.03,0.1c0.01,0.03,0.02,0.06,0.03,0.09c0.01,0.03,0.01,0.06,0.02,0.09c0.01,0.04,0.02,0.08,0.02,0.12
			l0,0.02c0,0.02,0.01,0.03,0.01,0.05c0.01,0.07,0.01,0.14,0.01,0.19c0,1.07,0.91,1.93,2.02,1.93h0.08v0.13h-0.07
			c-1.18,0-2.14-0.93-2.14-2.07c0-0.06,0-0.12-0.01-0.19c0-0.01,0-0.03-0.01-0.04l0-0.02c-0.01-0.04-0.01-0.08-0.02-0.11
			c-0.01-0.03-0.01-0.06-0.02-0.08c-0.01-0.03-0.02-0.06-0.03-0.09c-0.01-0.03-0.02-0.06-0.03-0.09c-0.01-0.02-0.02-0.04-0.03-0.07
			c-0.02-0.04-0.03-0.07-0.05-0.11l-0.01-0.02c-0.07-0.14-0.17-0.28-0.27-0.4h-0.36c0.04,0.03,0.07,0.07,0.11,0.1l0.01,0.01
			c0.04,0.04,0.07,0.08,0.11,0.12l0.01,0.01c0.03,0.04,0.06,0.09,0.09,0.13l0.01,0.02c0.03,0.04,0.05,0.09,0.07,0.13
			c0,0.01,0.01,0.04,0.01,0.04c0.02,0.04,0.04,0.08,0.05,0.13c0,0.01,0.01,0.02,0.01,0.04l0.01,0.05c0.01,0.03,0.02,0.06,0.02,0.08
			c0.01,0.03,0.01,0.05,0.01,0.08l0.01,0.05c0,0.01,0.01,0.03,0.01,0.04c0.01,0.06,0.01,0.12,0.01,0.18c0,1.27,1.08,2.3,2.41,2.3
			h0.07v0.13h-0.07c-1.39,0-2.52-1.09-2.52-2.43c0-0.06,0-0.12-0.01-0.17c0-0.01,0-0.02,0-0.03l0-0.02
			c-0.01-0.04-0.01-0.08-0.02-0.13c0-0.01-0.01-0.04-0.01-0.04c-0.01-0.04-0.02-0.08-0.04-0.12l-0.01-0.03
			c-0.02-0.04-0.04-0.09-0.06-0.13l-0.01-0.02c-0.02-0.04-0.05-0.09-0.08-0.13l-0.01-0.01c-0.03-0.04-0.06-0.09-0.1-0.14
			c-0.04-0.04-0.08-0.09-0.12-0.13c-0.04-0.04-0.09-0.08-0.13-0.12h-0.45c0.04,0.02,0.08,0.04,0.12,0.07l0.02,0.02
			c0.05,0.04,0.1,0.07,0.15,0.11c0.05,0.04,0.09,0.08,0.14,0.13l0.02,0.02c0.03,0.04,0.07,0.08,0.1,0.12l0.02,0.03
			c0.03,0.05,0.06,0.1,0.09,0.15c0.02,0.05,0.05,0.1,0.07,0.16c0,0.01,0.01,0.04,0.01,0.04c0.01,0.04,0.02,0.09,0.03,0.13
			c0,0,0.01,0.04,0.01,0.05c0.01,0.07,0.01,0.12,0.01,0.18c0,1.47,1.25,2.67,2.79,2.67h0.07v4.28h0.26v-8.17h-0.26V142.21z"/>
		<polygon class="st1" points="139.98,140.76 142.92,148.93 143.2,148.93 140.25,140.76 		"/>
		<polygon class="st1" points="140.35,140.76 143.3,148.93 143.57,148.93 140.63,140.76 		"/>
		<polygon class="st1" points="140.72,140.76 143.67,148.93 143.95,148.93 141,140.76 		"/>
		<polygon class="st1" points="141.1,140.76 144.05,148.93 144.32,148.93 141.38,140.76 		"/>
		<polygon class="st1" points="141.47,140.76 144.42,148.93 144.7,148.93 141.75,140.76 		"/>
		<g>
			<path class="st2" d="M162.06,96.88h-4.75v-1.42h-14.61v-3.13c17.53-1.61,31.32-16.4,31.32-34.35c0-19.02-15.48-34.5-34.5-34.5
				c-18.35,0-33.4,14.4-34.44,32.5h-2.98c-1.04-18.09-16.08-32.5-34.43-32.5c-19.02,0-34.5,15.48-34.5,34.5
				c0,17.95,13.78,32.73,31.32,34.35v3.13H49.87v18h-5.58v-6.31H15.53v2v2c4.32,0,7.5,1.3,9.73,3.97
				c5.36,6.42,3.23,18.54,3.21,18.66l-0.43,2.36h16.25v-8.44h5.58v28h14.2v15.49h20.38v1.83c-8.18,0.99-14.54,7.96-14.54,16.41
				s6.36,15.42,14.54,16.41v2.6h-21.3v9.59h4.09l-8.25,45.41c-0.2,1.09,0.52,2.13,1.61,2.33c0.12,0.02,0.24,0.03,0.36,0.03
				c0.95,0,1.79-0.68,1.97-1.64l8.38-46.13h3.5l-8.24,45.41c-0.2,1.09,0.52,2.13,1.61,2.33c0.12,0.02,0.24,0.03,0.36,0.03
				c0.95,0,1.79-0.68,1.97-1.64l8.37-46.13h18.45v46.47c0,1.1,0.9,2,2,2s2-0.9,2-2v-46.47h3.83v46.47c0,1.1,0.9,2,2,2s2-0.9,2-2
				v-46.47h19.16l8.37,46.13c0.18,0.97,1.02,1.64,1.97,1.64c0.12,0,0.24-0.01,0.36-0.03c1.09-0.2,1.81-1.24,1.61-2.33l-8.24-45.41
				h3.5l8.38,46.13c0.18,0.97,1.02,1.64,1.97,1.64c0.12,0,0.24-0.01,0.36-0.03c1.09-0.2,1.81-1.24,1.61-2.33l-8.25-45.41h4.09v-9.59
				h-21.3v-9.75v-4v-23.5h20.38v-15.49h14.2v-1.42h4.75v-7.36h6.54v-42.68h-6.54V96.88z M140.03,214.03h-2.42h-0.02h-7.54h-0.02
				h-20.87H97.31H77.16h-0.02h-7.55h-0.02h-2.42v-1.59h17.3h38.28h17.3V214.03z M84.45,177.07c0.65-0.11,1.32-0.17,2-0.17
				c0,0,0,0,0,0c0.68,0,1.35,0.07,2,0.17c5.97,0.96,10.54,6.13,10.54,12.37c0,1.88-0.43,3.66-1.17,5.26c-0.33,0.7-0.71,1.37-1.16,2
				c-0.52,0.73-1.12,1.4-1.78,2c-1.76,1.6-3.97,2.71-6.43,3.11c-0.65,0.11-1.32,0.17-2,0.17c0,0,0,0,0,0c-0.68,0-1.35-0.07-2-0.17
				c-5.97-0.96-10.54-6.13-10.54-12.37S78.48,178.03,84.45,177.07z M118.73,194.7h-16.61c0.56-1.65,0.87-3.42,0.87-5.26
				c0-8.44-6.36-15.42-14.54-16.41v-1.83h30.28V194.7z M64.07,151.71h-10.2v-24h14.4v4.21h43.31v-22.66h-5.42
				c-0.89-3.43-4.01-5.98-7.71-5.98s-6.82,2.55-7.71,5.98h-1.63c-0.89-3.43-4.01-5.98-7.71-5.98s-6.82,2.55-7.71,5.98h-5.42v4.21
				h-14.4v-14h10.61h37.11h4h37.11h10.61v52.24h-10.2H64.07z M44.29,117.47h5.58h2h2h14.4v6.24h-14.4h-2h-2h-5.58V117.47z
				 M77.42,111.26c0-0.73,0.21-1.41,0.56-2c0.69-1.18,1.96-1.98,3.42-1.98s2.73,0.8,3.42,1.98c0.35,0.59,0.56,1.27,0.56,2
				c0,0,0,0,0,0c0,0.73-0.21,1.41-0.56,2c-0.69,1.18-1.96,1.98-3.42,1.98s-2.73-0.8-3.42-1.98
				C77.64,112.67,77.42,111.99,77.42,111.26C77.42,111.26,77.42,111.26,77.42,111.26z M94.48,111.26c0-0.73,0.21-1.41,0.56-2
				c0.69-1.18,1.96-1.98,3.42-1.98s2.73,0.8,3.42,1.98c0.35,0.59,0.56,1.27,0.56,2c0,0,0,0,0,0c0,0.73-0.21,1.41-0.56,2
				c-0.69,1.18-1.96,1.98-3.42,1.98s-2.73-0.8-3.42-1.98C94.69,112.67,94.48,111.99,94.48,111.26
				C94.48,111.26,94.48,111.26,94.48,111.26z M105.59,64.21c2.89,15.8,16.57,27.87,33.11,28.26v2.99h-33.11V64.21z M125.41,58
				c0-0.68,0.07-1.34,0.16-2c0.98-6.83,6.85-12.1,13.95-12.1c7.78,0,14.1,6.33,14.1,14.1c0,6.68-4.68,12.28-10.92,13.73
				c-0.65,0.15-1.32,0.26-2,0.32c-0.39,0.03-0.78,0.06-1.18,0.06c-0.28,0-0.55-0.03-0.82-0.04c-6.72-0.39-12.19-5.5-13.13-12.06
				C125.47,59.34,125.41,58.68,125.41,58C125.41,58,125.41,58,125.41,58z M81.77,58C81.77,58,81.77,58,81.77,58
				c0,0.68-0.06,1.34-0.16,2c-0.94,6.57-6.4,11.68-13.13,12.06c-0.27,0.02-0.54,0.04-0.82,0.04c-0.4,0-0.79-0.03-1.18-0.06
				c-0.68-0.06-1.35-0.16-2-0.32C58.23,70.28,53.56,64.68,53.56,58c0-7.78,6.33-14.1,14.1-14.1c7.1,0,12.97,5.27,13.95,12.1
				C81.7,56.65,81.77,57.31,81.77,58z M68.48,92.47c16.53-0.39,30.22-12.46,33.11-28.26v31.25H68.48V92.47z"/>
			<rect x="169.63" y="100.77" class="st2" width="8.66" height="49.64"/>
			<rect x="179.29" y="97.47" class="st2" width="8.66" height="56.24"/>
			<rect x="188.94" y="93.63" class="st2" width="8.66" height="63.91"/>
			<rect x="198.6" y="89.39" class="st2" width="8.66" height="72.39"/>
			<rect x="208.26" y="85.57" class="st2" width="8.66" height="80.04"/>
			<path class="st2" d="M84.45,197.15c0.64,0.17,1.31,0.26,2,0.26c0,0,0,0,0,0c1.17,0,2.28-0.26,3.29-0.72
				c1.04-0.47,1.95-1.16,2.69-2c1.24-1.41,2-3.24,2-5.26c0-3.71-2.55-6.82-5.98-7.71c-0.64-0.17-1.31-0.26-2-0.26c0,0,0,0,0,0
				c-0.69,0-1.36,0.1-2,0.26c-3.43,0.89-5.98,4.01-5.98,7.71S81.01,196.26,84.45,197.15z"/>
			<path class="st2" d="M226.99,88.19c0.32,0,0.65-0.08,0.96-0.24l29.01-15.83c0.97-0.53,1.33-1.74,0.8-2.71
				c-0.53-0.97-1.74-1.33-2.71-0.8l-29.01,15.83c-0.97,0.53-1.33,1.74-0.8,2.71C225.59,87.81,226.28,88.19,226.99,88.19z"/>
			<path class="st2" d="M226.99,97.63c0.23,0,0.46-0.04,0.68-0.12L273.15,81c1.04-0.38,1.57-1.52,1.2-2.56s-1.52-1.57-2.56-1.2
				L226.3,93.75c-1.04,0.38-1.57,1.52-1.2,2.56C225.4,97.13,226.17,97.63,226.99,97.63z"/>
			<path class="st2" d="M258.78,177.87l-30.85-16.57c-0.97-0.52-2.19-0.16-2.71,0.82c-0.52,0.97-0.16,2.19,0.82,2.71l30.85,16.57
				c0.3,0.16,0.62,0.24,0.94,0.24c0.71,0,1.4-0.38,1.76-1.05C260.12,179.61,259.75,178.4,258.78,177.87z"/>
			<path class="st2" d="M273.11,163.79l-45.48-15.51c-1.05-0.36-2.18,0.2-2.54,1.25c-0.36,1.05,0.2,2.18,1.25,2.54l45.48,15.51
				c0.21,0.07,0.43,0.11,0.65,0.11c0.83,0,1.61-0.52,1.89-1.36C274.72,165.29,274.16,164.15,273.11,163.79z"/>
		</g>
	</g>
</g>
</svg>
