<?xml version="1.0" encoding="utf-8"?>
<!-- Generator: Adobe Illustrator 25.2.1, SVG Export Plug-In . SVG Version: 6.00 Build 0)  -->
<svg version="1.1" id="Layer_1" xmlns="http://www.w3.org/2000/svg" xmlns:xlink="http://www.w3.org/1999/xlink" x="0px" y="0px"
	 viewBox="0 0 290 290" style="enable-background:new 0 0 290 290;" xml:space="preserve">
<style type="text/css">
	.st0{fill:none;}
	.st1{fill:#CE2C88;}
</style>
<g>
	<g>
		<rect class="st0" width="290" height="290"/>
	</g>
	<g>
		<circle class="st0" cx="122.16" cy="182.23" r="14.57"/>
		<path class="st0" d="M163.07,227.55l0.07-0.04c0.01-0.11,0.02-0.22,0.03-0.33c-6.02,3.91-13.06,6.04-20.49,6.04
			c-7.67,0-14.74-2.25-20.7-6.15c0.01,2.57,0.1,6.92,0.54,11.69c0.06,0.67-0.27,1.28-0.79,1.62c3.39,6.48,13.88,10.61,14.99,11.03
			c0.97,0.21,5.38,1.42,7.6,6.15c3.1-5.1,7.29-7.87,8.2-8.43c2.6-2.33,7.32-7.37,9.75-12.49c0.35-3.79,0.64-6.86,0.85-8.98
			C163.11,227.63,163.09,227.6,163.07,227.55z"/>
		<path class="st0" d="M163.41,196.8c8.04,0,14.57-6.54,14.57-14.57s-6.54-14.57-14.57-14.57c-8.04,0-14.57,6.54-14.57,14.57
			S155.38,196.8,163.41,196.8z"/>
		<path class="st0" d="M157.03,249.66c2.51,1.42,3.72,4.1,3.79,4.26l0.1,0.29c0.01,0.04,0.87,3.58,1.52,5.46
			c0.37,1.07,0.65,3.01,0.84,4.77c5.23-6.34,7.18-17.97,7.2-18.1c0.21-1.23-1.53-5.93-3.85-11.2c-0.26,0.83-0.58,1.66-0.94,2.47
			c-0.06,0.24-0.16,0.45-0.29,0.64C163.14,242.95,159.43,247.2,157.03,249.66z"/>
		<path class="st0" d="M149.07,266.96c-0.26,0.76-0.06,1.32,0.06,1.41c0.11-0.01,0.61-0.35,0.86-1.1c0.24-0.71,0.07-1.27-0.05-1.4
			C149.77,265.91,149.31,266.23,149.07,266.96z"/>
		<path class="st0" d="M118.03,240.69c-0.5-1.26-0.77-2.53-0.82-3.82l-4.08,7.41c0.14,1.61,1.18,8.31,8.81,17.8
			c0.01,0.01,3.49,4,6.18,6.91c0.96-4.4,2.21-10.82,2.02-13.08l-0.01-0.15l0.01-0.15c0.02-0.19,0.17-1.59,1.17-2.78
			C126.86,250.6,120.31,246.47,118.03,240.69z"/>
		<g>
			<path class="st1" d="M166.93,224.79c0.01-0.13,0.01-0.25,0-0.37c2.49-2.09,4.76-4.52,6.73-7.28c0.56-0.79,0.38-1.88-0.41-2.44
				c-0.79-0.56-1.88-0.38-2.44,0.41c-6.65,9.3-16.9,14.63-28.12,14.63c-19.63,0-35.03-16.22-35.19-36.98
				c3.28,4.56,8.62,7.55,14.66,7.55c9.97,0,18.07-8.11,18.07-18.07c0-1.41,1.14-2.55,2.55-2.55c1.41,0,2.55,1.14,2.55,2.55
				c0,9.97,8.11,18.07,18.07,18.07s18.07-8.11,18.07-18.07c0-1.2-0.12-2.37-0.35-3.5c0.34-0.11,0.66-0.33,0.88-0.65
				c2.35-3.35,5.65-4.97,8.61-4.23c2.06,0.52,3.76,2.12,4.77,4.53c1.08,2.58,1.25,5.73,0.47,8.85c-1.56,6.27-6.47,10.46-10.91,9.35
				c-0.94-0.23-1.89,0.34-2.12,1.27c-0.23,0.94,0.34,1.89,1.27,2.12c0.75,0.19,1.5,0.28,2.26,0.28c5.61,0,11.11-5,12.9-12.18
				c0.96-3.85,0.73-7.78-0.64-11.05c-1.45-3.45-3.99-5.78-7.15-6.57c-0.78-0.19-1.57-0.28-2.36-0.28c0.06-0.29,0.12-0.58,0.18-0.86
				c0.23-1.15,0.45-2.24,0.73-3.28c5.16-19.45,4.09-33.78-3.19-42.57c-7.88-9.53-19.98-8.79-20.48-8.75
				c-0.96,0.07-1.69,0.9-1.62,1.87c0.07,0.96,0.9,1.68,1.86,1.63c0.11-0.01,10.86-0.62,17.57,7.52c6.49,7.88,7.32,21.14,2.48,39.41
				c-0.3,1.14-0.54,2.33-0.78,3.48c-0.15,0.76-0.32,1.53-0.49,2.31c-1.81,0.72-3.53,1.95-5.01,3.62c-0.28-0.14-0.55-0.29-0.82-0.44
				c-1.73-3.41-4.5-6.21-7.9-7.95c-8.33-12.94-9.52-30.82-9.53-31l-0.1-1.69l-1.7,0.05c-0.48,0.01-1.6,0.23-1.72,1.92
				c-0.32,4.56-2.4,25.3-13.54,29.76c3.1-4.43,6.65-12.28,2.56-21.71c-0.38-0.89-1.42-1.29-2.3-0.91c-0.89,0.39-1.29,1.42-0.91,2.3
				c5.34,12.29-4.58,21.22-5,21.59l-3.51,3.07h4.66c8.04,0,14.27-5.55,18.02-16.06c0.7-1.97,1.32-4.12,1.84-6.39
				c1.17,5.23,3.11,11.52,6.21,17.37c-1.04-0.19-2.11-0.3-3.2-0.3c-8.2,0-15.14,5.5-17.34,13c-0.95-0.62-2.08-0.98-3.29-0.98
				c-1.21,0-2.34,0.36-3.29,0.98c-0.95-3.23-2.78-6.09-5.21-8.29c1.44-0.68,3.19-1.83,4.62-3.77c0.57-0.78,0.41-1.87-0.37-2.45
				c-0.78-0.57-1.87-0.41-2.45,0.37c-2.02,2.75-5.03,3.29-5.1,3.3c-0.06,0.01-0.12,0.03-0.18,0.05c-2.57-1.41-5.51-2.21-8.64-2.21
				c-7.4,0-13.76,4.47-16.56,10.85c-3.16-3.83-7.47-5.57-11.51-4.56c-3.16,0.79-5.7,3.12-7.15,6.57c-1.38,3.27-1.6,7.2-0.64,11.05
				c1.79,7.18,7.29,12.18,12.9,12.18c0.75,0,1.51-0.09,2.26-0.28c0.94-0.23,1.51-1.18,1.27-2.12c-0.23-0.94-1.18-1.51-2.12-1.27
				c-4.45,1.11-9.35-3.08-10.91-9.35c-0.78-3.13-0.61-6.27,0.47-8.85c1.01-2.41,2.7-4.02,4.77-4.53c2.96-0.74,6.26,0.88,8.61,4.23
				c0.22,0.32,0.54,0.53,0.88,0.65c-0.22,1.13-0.35,2.3-0.35,3.5c0,3.09,0.78,5.99,2.15,8.53c-0.16-0.05-0.32-0.08-0.49-0.08
				c-0.97,0-1.75,0.78-1.75,1.75c0,13.16,5.63,24.66,14.53,32.08c0,0.02-0.01,0.04-0.01,0.06c0,0.1-0.03,1.1-0.02,2.72
				c0,0.01-0.01,0.02-0.02,0.02l-8.86,16.1l-0.01,0.43c-0.01,0.34-0.06,8.43,9.64,20.49c0.25,0.29,6.21,7.13,8.63,9.47l2.2,2.14
				l0.71-2.99c0.32-1.33,3.05-12.91,2.83-17.11c0.04-0.21,0.18-0.69,0.53-0.93c0.43-0.3,1.15-0.22,1.68-0.1l0-0.01
				c0.03,0.01,0.05,0.02,0.08,0.02c0.17,0.03,4.13,0.82,5.59,5.12c0.18,0.53,0.59,0.9,1.07,1.08c-1.13,2.79-1.85,6.07-1.71,9.86
				c0.03,0.94,0.81,1.69,1.75,1.69c0.02,0,0.04,0,0.06,0c0.97-0.03,1.72-0.85,1.69-1.81c-0.4-11.13,7.75-17.18,9.69-18.45
				c1.98,0.19,3.22,2.39,3.48,2.91c0.19,0.77,0.95,3.79,1.57,5.6c0.44,1.28,0.83,5.29,0.97,7.51l0.2,3.16l2.57-1.86
				c8.24-5.96,10.95-22.04,11.05-22.71c0.59-3.48-4.84-15.06-7.22-19.9C166.85,225.58,166.93,224.79,166.93,224.79z M163.41,167.65
				c8.04,0,14.57,6.54,14.57,14.57s-6.54,14.57-14.57,14.57c-8.04,0-14.57-6.54-14.57-14.57S155.38,167.65,163.41,167.65z
				 M122.16,167.65c8.04,0,14.57,6.54,14.57,14.57s-6.54,14.57-14.57,14.57s-14.57-6.54-14.57-14.57S114.13,167.65,122.16,167.65z
				 M130.14,255.62l-0.01,0.15l0.01,0.15c0.19,2.26-1.06,8.68-2.02,13.08c-2.69-2.91-6.17-6.9-6.18-6.91
				c-7.63-9.49-8.67-16.18-8.81-17.8l4.08-7.41c0.05,1.28,0.32,2.55,0.82,3.82c2.27,5.78,8.83,9.92,13.28,12.15
				C130.31,254.03,130.16,255.43,130.14,255.62z M152.54,249.14c-0.91,0.56-5.1,3.33-8.2,8.43c-2.22-4.73-6.63-5.94-7.6-6.15
				c-1.11-0.42-11.6-4.54-14.99-11.03c0.53-0.34,0.86-0.95,0.79-1.62c-0.44-4.77-0.53-9.12-0.54-11.69
				c5.95,3.9,13.03,6.15,20.7,6.15c7.43,0,14.46-2.13,20.49-6.04c-0.01,0.11-0.02,0.22-0.03,0.33l-0.07,0.04
				c0.02,0.04,0.04,0.08,0.06,0.12c-0.2,2.11-0.49,5.18-0.85,8.98C159.85,241.77,155.14,246.81,152.54,249.14z M170.48,246.34
				c-0.02,0.13-1.97,11.76-7.2,18.1c-0.19-1.76-0.47-3.7-0.84-4.77c-0.65-1.88-1.51-5.43-1.52-5.46l-0.1-0.29
				c-0.07-0.16-1.28-2.84-3.79-4.26c2.4-2.46,6.11-6.71,8.37-11.4c0.14-0.19,0.24-0.4,0.29-0.64c0.36-0.82,0.69-1.64,0.94-2.47
				C168.95,240.41,170.68,245.1,170.48,246.34z"/>
			<path class="st1" d="M143.04,197.42c0.05-0.96-0.69-1.78-1.65-1.83c-0.96-0.04-1.79,0.69-1.84,1.65
				c-0.02,0.37-0.06,2.26,1.09,3.43c0.55,0.56,1.29,0.87,2.1,0.87c0.04,0,0.08,0,0.12,0c0.97-0.04,1.72-0.85,1.69-1.81
				c-0.03-0.84-0.64-1.51-1.43-1.66C143.06,197.89,143.04,197.63,143.04,197.42z"/>
			<path class="st1" d="M160.72,121.25c0.52-0.81,0.29-1.9-0.52-2.42c-0.5-0.32-12.37-7.78-30.99-3.12
				c-0.94,0.23-1.51,1.18-1.27,2.12c0.23,0.94,1.19,1.51,2.12,1.27c17.08-4.27,28.14,2.6,28.25,2.67c0.29,0.19,0.62,0.28,0.94,0.28
				C159.83,122.05,160.39,121.77,160.72,121.25z"/>
			<path class="st1" d="M93.72,167.98c0.25,0.73,0.93,1.19,1.66,1.19c0.19,0,0.38-0.03,0.57-0.09c0.91-0.31,1.4-1.31,1.09-2.22
				c-12.74-37.32,15.14-48.63,16.34-49.1c0.04-0.02,0.07-0.04,0.11-0.06c0.04-0.02,0.08-0.03,0.11-0.05
				c26.41-14.77,47.02-0.02,47.24,0.14c0.31,0.23,0.68,0.34,1.04,0.34c0.54,0,1.06-0.25,1.41-0.71c0.58-0.78,0.41-1.87-0.36-2.45
				c-0.23-0.17-5.73-4.19-14.8-6.26c-8.32-1.89-21.32-2.42-36.12,5.82C109.95,115.39,80.28,128.6,93.72,167.98z"/>
			<path class="st1" d="M138.15,124.96c-0.71,0.66-0.75,1.76-0.09,2.47c0.34,0.37,0.81,0.56,1.28,0.56c0.43,0,0.85-0.15,1.19-0.47
				c6.37-5.9,16.9-1.73,17.02-1.68c0.89,0.36,1.91-0.06,2.28-0.96c0.37-0.89-0.06-1.92-0.96-2.28
				C158.37,122.39,146.18,117.52,138.15,124.96z"/>
			<path class="st1" d="M163.01,122.74c0.29,0.92,1.27,1.43,2.2,1.14c4.25-1.34,8.36,3.3,8.41,3.36c0.35,0.4,0.83,0.61,1.33,0.61
				c0.4,0,0.81-0.14,1.14-0.42c0.73-0.63,0.82-1.73,0.19-2.47c-0.23-0.26-5.64-6.45-12.12-4.42
				C163.23,120.84,162.72,121.82,163.01,122.74z"/>
			<path class="st1" d="M165.33,114.13c1.43-2.02,4.83-5.44,6.54-4.62c0.87,0.42,1.92,0.05,2.34-0.82c0.42-0.87,0.05-1.92-0.82-2.34
				c-4.95-2.39-10.31,4.9-10.91,5.74c-0.56,0.79-0.38,1.88,0.41,2.44c0.31,0.22,0.66,0.32,1.01,0.32
				C164.45,114.87,164.99,114.61,165.33,114.13z"/>
			<path class="st1" d="M109.66,240.67c-0.31-0.91-1.31-1.4-2.22-1.09c-0.1,0.03-9.68,3.33-19.18,7.3
				c-17.74,7.41-20.25,10.78-20.36,13.11c-0.05,0.97,0.69,1.81,1.66,1.86c0.03,0,0.06,0,0.09,0c0.93,0,1.69-0.7,1.74-1.64
				c0.65-2.41,15.05-9.72,37.19-17.32C109.49,242.58,109.97,241.58,109.66,240.67z"/>
			<path class="st1" d="M151.06,262.55L151.06,262.55c-1.09-0.37-2.32-0.16-3.35,0.58c-0.89,0.63-1.58,1.59-1.96,2.72
				c-0.86,2.56,0.13,5.12,2.25,5.83c0.36,0.12,0.73,0.18,1.1,0.18c1.78,0,3.5-1.36,4.21-3.48
				C154.17,265.82,153.18,263.26,151.06,262.55z M149.99,267.27c-0.25,0.75-0.75,1.09-0.86,1.1c-0.12-0.09-0.32-0.65-0.06-1.41
				c0.24-0.73,0.7-1.05,0.88-1.08C150.06,266,150.23,266.56,149.99,267.27z"/>
			<path class="st1" d="M102.5,143.04c-0.87-0.41-1.92-0.04-2.33,0.83c-4.1,8.65,0.86,23.48,1.07,24.11
				c0.25,0.73,0.93,1.19,1.66,1.19c0.19,0,0.38-0.03,0.56-0.09c0.92-0.31,1.4-1.31,1.09-2.22c-0.05-0.14-4.72-14.1-1.22-21.48
				C103.75,144.5,103.38,143.45,102.5,143.04z"/>
			<path class="st1" d="M110.15,140.76c-0.78-0.57-1.88-0.39-2.44,0.39c-0.2,0.28-4.91,6.89-4.09,15.05
				c0.09,0.9,0.85,1.57,1.74,1.57c0.06,0,0.12,0,0.18-0.01c0.96-0.1,1.66-0.96,1.56-1.92c-0.69-6.79,3.39-12.57,3.44-12.65
				C111.11,142.42,110.93,141.32,110.15,140.76z"/>
			<path class="st1" d="M178.47,198.78c0.9,5.51,3.9,20.43,10.89,27.6c0.68,0.69,1.78,0.7,2.48,0.03c0.69-0.68,0.7-1.78,0.03-2.48
				c-7.67-7.85-10.21-27.47-10.23-27.66l-0.19-1.54l-1.55,0c-0.28,0-2.77,0.07-4.54,2.22c-1.52,1.85-1.94,4.54-1.26,8.01
				c0.31,1.57,0.53,3.07,0.75,4.52c0.9,5.97,1.74,11.61,7.93,18.18c0.34,0.37,0.81,0.55,1.27,0.55c0.43,0,0.86-0.16,1.2-0.48
				c0.7-0.66,0.74-1.77,0.07-2.47c-5.44-5.77-6.13-10.41-7.02-16.3c-0.22-1.49-0.45-3.03-0.77-4.67c-0.46-2.34-0.28-4.1,0.51-5.09
				C178.17,199.04,178.31,198.9,178.47,198.78z"/>
			<path class="st1" d="M189.83,239.25c-0.47-0.85-1.53-1.15-2.38-0.68c-2.32,1.29-6.73,3.89-9.61,6.56l-0.21-2.21
				c0.7-1.23,5.84-4.09,11.22-6.22c0.9-0.36,1.34-1.37,0.98-2.27c-0.36-0.9-1.37-1.34-2.27-0.98c-4.75,1.88-8.24,3.66-10.48,5.31
				l0-1.54c0.66-1.22,5.83-4.1,11.23-6.24c0.9-0.36,1.34-1.37,0.98-2.27c-0.36-0.9-1.37-1.34-2.27-0.98
				c-9.05,3.58-13.57,6.78-13.44,9.51l0,2.53c0,0.69,0.4,1.28,0.98,1.57c-0.34,0.59-0.49,1.17-0.44,1.73l0.42,4.45
				c0.05,0.5,0.31,0.93,0.67,1.21c-0.02,0.07-0.05,0.14-0.07,0.21c-0.2,0.85-0.83,5.42,6.81,10.41l0.2,0.13l0.23,0.07
				c0.14,0.04,0.7,0.2,1.54,0.2c1.31,0,3.29-0.38,5.4-2.17c0.74-0.62,0.83-1.73,0.21-2.47s-1.73-0.83-2.47-0.21
				c-1.64,1.39-3.01,1.38-3.47,1.32c-5.44-3.65-5.05-6.45-5.06-6.45l0.03-0.15c0.27-1.3,5.2-5.04,10.56-8
				C189.99,241.16,190.3,240.1,189.83,239.25z"/>
			<path class="st1" d="M186.37,247.55c-0.35,0.23-2.74,1.51-4.84,2.62c-0.86,0.45-1.19,1.51-0.74,2.36
				c0.31,0.6,0.92,0.94,1.55,0.94c0.27,0,0.55-0.06,0.81-0.2c1.04-0.55,4.5-2.37,5.15-2.8c0.81-0.53,1.02-1.62,0.49-2.42
				C188.26,247.23,187.18,247.01,186.37,247.55z"/>
			<path class="st1" d="M202.73,213.98l-1.38-0.72c-1.15-0.6-3.71-1.3-5.99-0.09c-2.27,1.2-3.65,3.86-4.1,7.9
				c-0.11,0.96,0.58,1.83,1.54,1.93c0.96,0.1,1.83-0.58,1.93-1.54c0.31-2.73,1.1-4.57,2.25-5.19c0.42-0.23,0.88-0.29,1.3-0.27
				c-0.62,2-1.53,5.43-1.87,9.31l-1.66-0.6c-0.9-0.35-1.92,0.1-2.26,1c-0.35,0.9,0.1,1.91,1,2.26l1.74,0.67
				c0.13,0.41,0.34,1.24,0.61,2.81c0.82,4.85,11.18,18.43,12.36,19.97c0.34,0.45,0.86,0.68,1.39,0.68c0.37,0,0.75-0.12,1.06-0.36
				c0.77-0.59,0.91-1.69,0.32-2.45c-3.38-4.4-8.45-11.54-10.64-15.8c0,0,0,0,0,0c-1.97-8.01,1.78-17.95,1.82-18.05L202.73,213.98z"
				/>
			<path class="st1" d="M213.35,250.36l-0.79,3.85c-0.02,0.08-1.76,8.29-7.32,11.64c-2.58,1.56-5.67,1.82-9.18,0.8
				c-0.92-0.27-1.9,0.26-2.17,1.19c-0.27,0.93,0.26,1.9,1.19,2.17c1.73,0.51,3.39,0.76,4.98,0.76c2.53,0,4.88-0.64,7.01-1.93
				c4.29-2.59,6.67-7.23,7.87-10.44l4.69,6.35c0.57,0.78,1.67,0.94,2.45,0.37c0.78-0.57,0.94-1.67,0.37-2.45L213.35,250.36z"/>
			<path class="st1" d="M198.1,266.03c0.88,0,1.64-0.67,1.74-1.56c0.1-0.96-0.59-1.82-1.55-1.93c-4.33-0.47-4.7-7.3-4.7-7.37
				c-0.04-0.96-0.85-1.72-1.82-1.67c-0.97,0.04-1.71,0.86-1.67,1.82c0.02,0.4,0.5,9.9,7.82,10.69
				C197.98,266.03,198.04,266.03,198.1,266.03z"/>
			<path class="st1" d="M249.63,24.98h-7.85c-3.33-5.43-9.3-9.07-16.13-9.07H180.1c-10.44,0-18.93,8.49-18.93,18.93v27.37
				c0,9.08,9.09,16.9,16.25,18.59l-6.27,18.45h2.79c11.42,0,18.89-3.97,23.65-8.34c0.86,0.31,1.7,0.55,2.51,0.7l-6.48,19.08h2.09
				c1.53,0,2.98-0.07,4.37-0.2c0.9,4.08,4.66,7.4,8.1,8.61l-3.42,10.05h2.79c9.9,0,15.02-5.63,16.84-9.56h10.44
				c6.03,0,10.93-4.9,10.93-10.93V94.22c0-0.83-0.1-1.64-0.28-2.42h4.13c10.56,0,19.14-8.59,19.14-19.14V44.12
				C268.77,33.56,260.18,24.98,249.63,24.98z M241.78,94.22v14.44c0,3.82-3.11,6.93-6.93,6.93h-11.81l-1.48,0.01l-0.44,1.41
				c-0.09,0.3-2.19,6.73-10.7,7.94l3.18-9.36h-2.79c-1.96,0-5.86-2.56-6.74-5.68c-0.12-0.41-0.19-0.83-0.19-1.25v-0.23v-1.54V94.22
				c0-3.82,3.11-6.93,6.93-6.93h24.03c1.63,0,3.12,0.57,4.31,1.51c0.54,0.43,1.01,0.93,1.4,1.5c0.32,0.46,0.58,0.97,0.78,1.5
				C241.61,92.55,241.78,93.37,241.78,94.22z M193.75,89.05c-3.75,2.99-9.18,5.59-16.98,6.1l6.12-18.02h-2.79
				c-4.91,0-14.93-6.91-14.93-14.93V34.83c0-8.23,6.7-14.93,14.93-14.93h45.56c4.45,0,8.44,1.97,11.18,5.07
				c0.42,0.48,0.82,0.97,1.18,1.5c0.33,0.48,0.61,0.98,0.88,1.5c1.07,2.06,1.68,4.38,1.68,6.85v27.37c0,8.23-6.7,14.93-14.93,14.93
				h-22.38l-1.49,0.01l-0.43,1.42c-0.1,0.33-1.38,4.34-5.25,8.35c-0.35,0.36-0.72,0.72-1.11,1.08
				C194.6,88.35,194.18,88.7,193.75,89.05z"/>
			<path class="st1" d="M177.36,38.2c0.77-1.42,2.49-4.62,4.51-3.12c0.92,0.68,1.51,1.72,2.28,2.53c0.36,0.38,0.77,0.7,1.26,0.91
				c0.29,0.13,0.6,0.23,0.97,0.26c0.19,0.02,0.36,0.01,0.54-0.01c0.69-0.06,1.32-0.33,1.9-0.77c0.68-0.52,1.22-1.43,2.02-1.76
				c2.08-0.86,3.97,1.78,5.03,3.14c0.42,0.54,1.28,0.51,1.82,0.23c1.25-0.65,2.29-1.61,3.34-2.54c0.85-0.76,1.93-1.8,3.18-1.67
				c1.3,0.14,2.31,1.38,3.19,2.22c1.11,1.06,2.37,2.24,4.01,2.2c1.7-0.04,3.1-1.33,4.41-2.25c0.65-0.45,1.41-0.99,2.23-1.07
				c0.85-0.09,1.33,0.38,1.92,0.88c1.15,0.96,2.42,1.54,3.94,1.22c1.52-0.31,2.73-1.37,4.2-1.78c1.86-0.51,1.07-3.41-0.8-2.89
				c-0.76,0.21-1.47,0.54-2.17,0.9c-0.58,0.3-1.28,0.81-1.96,0.86c-0.7,0.06-1.15-0.5-1.64-0.91c-0.58-0.48-1.19-0.92-1.92-1.13
				c-1.73-0.5-3.54,0.14-4.99,1.09c-0.68,0.45-1.31,0.97-2,1.42c-0.85,0.55-1.34,0.85-2.21,0.16c-2.26-1.81-4.11-4.46-7.4-3.84
				c-2.41,0.45-3.9,2.47-5.79,3.85c-1.43-1.66-3.12-3.09-5.43-3.22c-0.58-0.03-1.13,0.05-1.66,0.21c-0.61,0.19-1.18,0.49-1.68,0.9
				c-0.51,0.41-1.16,1.5-1.83,1.45c-0.11-0.01-0.22-0.04-0.34-0.12c-0.31-0.23-0.58-0.52-0.83-0.84c-0.49-0.61-0.91-1.29-1.49-1.79
				c-0.96-0.84-2.12-1.31-3.4-1.21c-2.89,0.22-4.56,2.63-5.81,4.95C173.85,38.39,176.44,39.9,177.36,38.2z"/>
			<path class="st1" d="M177.36,48.83c0.77-1.42,2.49-4.62,4.51-3.12c0.43,0.32,0.78,0.71,1.12,1.13c0.49,0.6,0.94,1.23,1.5,1.73
				c0.41,0.37,0.9,0.64,1.5,0.76c0.13,0.03,0.25,0.07,0.39,0.08c0.92,0.08,1.72-0.23,2.44-0.78c0.68-0.52,1.22-1.43,2.02-1.76
				c2.08-0.86,3.97,1.78,5.03,3.14c0.42,0.54,1.28,0.51,1.82,0.23c1.25-0.65,2.29-1.61,3.34-2.54c0.85-0.76,1.93-1.8,3.18-1.67
				c1.3,0.14,2.31,1.38,3.19,2.22c1.11,1.06,2.37,2.24,4.01,2.2c1.7-0.04,3.1-1.33,4.41-2.25c0.65-0.45,1.41-0.99,2.23-1.07
				c0.85-0.09,1.33,0.38,1.92,0.88c1.15,0.96,2.42,1.54,3.94,1.22c1.52-0.31,2.73-1.37,4.2-1.78c1.86-0.51,1.07-3.41-0.8-2.89
				c-0.76,0.21-1.47,0.54-2.17,0.9c-0.58,0.3-1.28,0.81-1.96,0.86c-0.7,0.06-1.15-0.5-1.64-0.91c-0.58-0.48-1.19-0.92-1.92-1.13
				c-1.73-0.5-3.54,0.14-4.99,1.09c-0.68,0.45-1.31,0.97-2,1.42c-0.85,0.55-1.34,0.85-2.21,0.16c-2.26-1.81-4.11-4.46-7.4-3.84
				c-2.41,0.45-3.9,2.47-5.79,3.85c-1.43-1.66-3.12-3.09-5.43-3.22c-1.23-0.06-2.4,0.34-3.35,1.12c-0.59,0.48-1.39,1.89-2.17,1.33
				c-0.11-0.08-0.2-0.19-0.3-0.28c-0.56-0.52-1-1.2-1.5-1.8c-0.16-0.19-0.33-0.38-0.51-0.55c-0.29-0.25-0.6-0.46-0.93-0.64
				c-0.75-0.42-1.58-0.64-2.47-0.57c-2.89,0.22-4.56,2.63-5.81,4.95C173.85,49.02,176.44,50.53,177.36,48.83z"/>
			<path class="st1" d="M197.69,60.87c1.25-0.65,2.29-1.61,3.34-2.54c0.85-0.76,1.93-1.8,3.18-1.67c1.3,0.14,2.31,1.38,3.19,2.22
				c1.11,1.06,2.37,2.24,4.01,2.2c1.7-0.04,3.1-1.33,4.41-2.25c0.65-0.45,1.41-0.99,2.23-1.07c0.85-0.09,1.33,0.38,1.92,0.88
				c1.15,0.96,2.42,1.54,3.94,1.22c1.52-0.31,2.73-1.37,4.2-1.78c1.86-0.51,1.07-3.41-0.8-2.89c-0.76,0.21-1.47,0.54-2.17,0.9
				c-0.58,0.3-1.28,0.81-1.96,0.86c-0.7,0.06-1.15-0.5-1.64-0.91c-0.58-0.48-1.19-0.92-1.92-1.13c-1.73-0.5-3.54,0.14-4.99,1.09
				c-0.68,0.45-1.31,0.97-2,1.42c-0.85,0.55-1.34,0.85-2.21,0.16c-2.26-1.81-4.11-4.46-7.4-3.84c-2.41,0.45-3.9,2.47-5.79,3.85
				c-1.43-1.66-3.12-3.09-5.43-3.22c-1.23-0.06-2.4,0.34-3.35,1.12c-0.59,0.48-1.39,1.89-2.17,1.33c-0.11-0.08-0.2-0.19-0.3-0.28
				c-0.56-0.52-1-1.2-1.5-1.8c-0.16-0.19-0.33-0.38-0.51-0.55c-0.31-0.27-0.64-0.48-0.99-0.67c-0.73-0.39-1.54-0.61-2.41-0.54
				c-2.89,0.22-4.56,2.63-5.81,4.95c-0.92,1.7,1.67,3.21,2.59,1.51c0.77-1.42,2.49-4.62,4.51-3.12c0.43,0.32,0.78,0.71,1.12,1.13
				c0.49,0.6,0.94,1.23,1.5,1.73c0.41,0.37,0.9,0.64,1.5,0.76c0.13,0.03,0.25,0.07,0.39,0.08c0.92,0.08,1.72-0.23,2.44-0.78
				c0.68-0.52,1.22-1.43,2.02-1.76c2.08-0.86,3.97,1.78,5.03,3.14C196.29,61.17,197.15,61.15,197.69,60.87z"/>
			<path class="st1" d="M235.48,95.66c-0.47,0.15-0.9,0.34-1.33,0.56c-0.08,0.04-0.54,0.36-0.69,0.33
				c-0.27-0.04-0.68-0.57-0.93-0.72c-0.38-0.23-0.79-0.36-1.23-0.4c-0.87-0.09-1.7,0.19-2.45,0.62c-0.37,0.21-0.69,0.51-1.05,0.74
				c-0.5,0.31-0.46,0.33-0.88-0.06c-0.47-0.44-0.95-0.87-1.48-1.22c-0.42-0.28-0.86-0.49-1.35-0.6c-0.39-0.08-0.8-0.1-1.24-0.02
				c-0.25,0.05-0.47,0.12-0.69,0.21c-0.83,0.35-1.47,0.98-2.17,1.55c-0.79-0.79-1.73-1.4-2.92-1.44c-0.79-0.03-1.51,0.23-2.13,0.7
				c-0.11,0.08-0.4,0.28-0.56,0.46c-0.57-1.27-2.24-2.07-3.56-1.84c-1.6,0.28-2.56,1.56-3.3,2.9c-0.93,1.69,1.66,3.21,2.59,1.51
				c0.21-0.38,0.49-1.12,0.91-1.33c0.44-0.22,0.52,0.01,0.82,0.36c0.63,0.75,1.24,1.51,2.29,1.62c1.02,0.11,1.63-0.45,2.36-1.04
				c0.42-0.34,0.55-0.43,1.05-0.09c0.37,0.25,0.67,0.63,0.95,0.99c0.07,0.09,0.13,0.17,0.19,0.25c0.3,0.38,0.85,0.48,1.33,0.4
				c0.18-0.03,0.35-0.08,0.49-0.16c0.71-0.39,1.29-0.92,1.9-1.45c0.38-0.33,0.76-0.75,1.29-0.58c0.03,0.01,0.06,0.03,0.08,0.04
				c0.59,0.25,1.14,1.06,1.63,1.45c0.68,0.53,1.43,0.87,2.31,0.7c0.89-0.18,1.54-0.73,2.27-1.22c0.18-0.12,0.68-0.52,0.95-0.47
				c0.3,0.05,0.61,0.48,0.86,0.64c1.67,1.1,2.87,0.01,4.47-0.49C238.12,97.98,237.33,95.08,235.48,95.66z"/>
			<path class="st1" d="M235.48,106.2c-0.47,0.15-0.9,0.34-1.33,0.56c-0.08,0.04-0.54,0.36-0.69,0.33
				c-0.27-0.04-0.68-0.57-0.93-0.72c-0.38-0.23-0.79-0.36-1.23-0.4c-0.87-0.09-1.7,0.19-2.45,0.62c-0.37,0.21-0.69,0.51-1.05,0.74
				c-0.5,0.31-0.46,0.33-0.88-0.06c-1.15-1.07-2.37-2.14-4.06-1.83c-1.19,0.22-1.98,1.04-2.86,1.76c-0.79-0.79-1.73-1.4-2.92-1.44
				c-0.79-0.03-1.51,0.23-2.13,0.7c-0.11,0.08-0.39,0.28-0.56,0.46c-0.09-0.19-0.2-0.36-0.33-0.53c-0.32-0.42-0.77-0.76-1.26-0.99
				c-0.63-0.3-1.34-0.43-1.97-0.32c-1.39,0.24-2.29,1.23-2.98,2.36c-0.11,0.18-0.21,0.36-0.31,0.54c-0.22,0.4-0.24,0.79-0.13,1.14
				c0.35,1.1,2.01,1.67,2.72,0.38c0.21-0.38,0.49-1.12,0.91-1.33c0.44-0.22,0.52,0.01,0.82,0.36c0.63,0.75,1.24,1.51,2.29,1.62
				c1.02,0.11,1.63-0.45,2.36-1.04c0.42-0.34,0.55-0.43,1.05-0.09c0.46,0.31,0.81,0.82,1.15,1.25c0.41,0.52,1.28,0.53,1.82,0.23
				c0.71-0.39,1.29-0.92,1.9-1.45c0.38-0.33,0.76-0.75,1.29-0.58c0.62,0.2,1.2,1.08,1.72,1.49c0.68,0.53,1.43,0.87,2.31,0.7
				c0.89-0.18,1.54-0.73,2.27-1.22c0.18-0.12,0.68-0.52,0.95-0.47c0.3,0.05,0.61,0.48,0.86,0.64c1.67,1.1,2.87,0.01,4.47-0.49
				C238.12,108.52,237.33,105.62,235.48,106.2z"/>
			<path class="st1" d="M72.03,160.42L67.7,147.7c2.37-0.6,5.03-2.15,7.16-4.3c2.22,0.62,4.78,1,7.73,1h2.79L81,131.51
				c5.03-1.54,11-6.96,11-13.2V99.8c3.38,1.14,7.41,1.88,12.18,1.88h2.09l-5.98-17.61c0.68-0.13,1.38-0.34,2.08-0.59
				c4.42,4.04,11.33,7.7,21.88,7.7h2.79l-5.79-17.05c6.62-1.66,14.93-8.88,14.93-17.24V31.66c0-9.7-7.89-17.6-17.6-17.6H76.59
				c-6.33,0-11.87,3.37-14.97,8.4H54.5c-9.79,0-17.76,7.97-17.76,17.76v26.3c0,9.79,7.97,17.76,17.76,17.76h20.45
				c0.17,0.42,0.4,0.95,0.7,1.56H47.02c-7.52,0-13.64,6.12-13.64,13.64v3.44c-6.78,0.51-12.15,6.18-12.15,13.09v18.83
				c0,7.25,5.89,13.14,13.14,13.14h14.36c0.55,1.28,1.71,3.53,3.85,5.77c2.92,3.05,8.3,6.69,17.36,6.69H72.03z M37.38,102.86v-3.39
				c0-5.32,4.32-9.64,9.64-9.64h31.08h0.25c0.61,0,1.21,0.06,1.79,0.17c1.08,0.2,2.09,0.59,3.01,1.12c1,0.58,1.89,1.32,2.62,2.2
				c0.69,0.83,1.23,1.77,1.61,2.79c0.23,0.62,0.4,1.28,0.5,1.96c0.07,0.46,0.11,0.92,0.11,1.4v18.83c0,4.93-5.85,9.2-9.15,9.6
				c-0.17,0.02-0.33,0.04-0.49,0.04h-1.01h-1.5h-0.28l0.28,0.82l1.5,4.42l1.26,3.72l1.14,3.36c-0.8-0.08-1.55-0.2-2.28-0.34
				c-0.52-0.1-1.01-0.23-1.5-0.36c-0.52-0.14-1.01-0.3-1.49-0.47c-7.93-2.84-10.05-9.36-10.16-9.7l-0.42-1.44H47.02
				c-5.32,0-9.64-4.32-9.64-9.64v-12.44v-1.5V102.86z M66.61,22.46c2.49-2.7,6.04-4.4,9.98-4.4h41.98c7.5,0,13.6,6.1,13.6,13.6
				v25.23c0,7.3-9.12,13.6-13.6,13.6h-2.79l5.64,16.59c-6.93-0.5-11.81-2.8-15.19-5.47c-0.44-0.34-0.85-0.69-1.24-1.04
				c-0.39-0.36-0.76-0.72-1.1-1.08c-3.5-3.64-4.66-7.27-4.75-7.57l-0.42-1.44H76.59c-7.5,0-13.6-6.1-13.6-13.6V31.66
				c0-2.23,0.55-4.34,1.51-6.2c0.27-0.52,0.56-1.02,0.89-1.5C65.76,23.43,66.17,22.93,66.61,22.46z"/>
			<path class="st1" d="M73.01,35.21c0.77-1.42,2.49-4.62,4.51-3.12c1.6,1.19,2.21,3.5,4.51,3.7c0.92,0.08,1.72-0.23,2.44-0.78
				c0.68-0.52,1.22-1.43,2.02-1.76c2.08-0.86,3.97,1.78,5.03,3.14c0.42,0.54,1.28,0.51,1.82,0.23c1.25-0.65,2.29-1.61,3.34-2.54
				c0.85-0.76,1.93-1.8,3.18-1.67c1.3,0.14,2.31,1.39,3.19,2.22c1.11,1.06,2.37,2.24,4.01,2.2c1.7-0.04,3.1-1.33,4.41-2.25
				c0.11-0.08,0.23-0.15,0.34-0.23c0.41-0.28,0.85-0.55,1.33-0.71c0.18-0.06,0.37-0.11,0.56-0.13c0.45-0.05,0.79,0.07,1.11,0.25
				c0.28,0.17,0.54,0.39,0.82,0.63c1.15,0.96,2.42,1.54,3.94,1.22c1.52-0.31,2.73-1.37,4.2-1.78c1.86-0.51,1.07-3.41-0.8-2.89
				c-0.76,0.21-1.47,0.54-2.17,0.9c-0.58,0.3-1.28,0.81-1.96,0.86c-0.7,0.06-1.15-0.5-1.64-0.91c-0.58-0.48-1.19-0.92-1.92-1.13
				c-0.7-0.2-1.41-0.21-2.11-0.09c-0.51,0.09-1.01,0.24-1.49,0.44c-0.47,0.2-0.92,0.44-1.34,0.71c-0.01,0.01-0.03,0.02-0.04,0.03
				c-0.68,0.45-1.31,0.97-2,1.42c-0.85,0.55-1.34,0.85-2.21,0.16c-2.26-1.81-4.11-4.46-7.4-3.84c-2.41,0.45-3.9,2.47-5.79,3.85
				c-1.43-1.66-3.12-3.1-5.43-3.22c-1.23-0.06-2.4,0.34-3.35,1.12c-0.59,0.48-1.39,1.89-2.17,1.33c-0.93-0.67-1.45-1.87-2.31-2.63
				c-0.96-0.84-2.12-1.31-3.4-1.21c-2.89,0.22-4.56,2.63-5.81,4.96C69.5,35.4,72.09,36.91,73.01,35.21z"/>
			<path class="st1" d="M73.01,45.84c0.77-1.42,2.49-4.62,4.51-3.12c1.6,1.19,2.21,3.5,4.51,3.7c0.92,0.08,1.72-0.23,2.44-0.78
				c0.68-0.52,1.22-1.43,2.02-1.76c2.08-0.86,3.97,1.78,5.03,3.14c0.42,0.54,1.28,0.51,1.82,0.23c1.25-0.65,2.29-1.61,3.34-2.54
				c0.85-0.76,1.93-1.8,3.18-1.67c1.3,0.14,2.31,1.39,3.19,2.22c1.11,1.06,2.37,2.24,4.01,2.2c1.7-0.04,3.1-1.33,4.41-2.25
				c0.47-0.33,1-0.69,1.56-0.91c0.22-0.08,0.44-0.14,0.66-0.17c0.33-0.03,0.59,0.03,0.84,0.13c0.39,0.16,0.72,0.44,1.09,0.75
				c0.14,0.11,0.27,0.22,0.41,0.32c1.04,0.76,2.19,1.18,3.53,0.9c1.52-0.31,2.73-1.37,4.2-1.78c1.86-0.51,1.07-3.41-0.8-2.89
				c-0.76,0.21-1.47,0.54-2.17,0.9c-0.58,0.3-1.28,0.81-1.96,0.86c-0.7,0.06-1.15-0.5-1.64-0.91c-0.37-0.3-0.75-0.59-1.17-0.81
				c-0.24-0.13-0.49-0.24-0.75-0.32c-0.25-0.07-0.5-0.11-0.75-0.14c-0.5-0.05-1-0.02-1.5,0.07c-0.98,0.19-1.92,0.62-2.74,1.16
				c-0.68,0.45-1.31,0.97-2,1.42c-0.85,0.55-1.34,0.85-2.21,0.16c-2.26-1.81-4.11-4.46-7.4-3.84c-2.41,0.45-3.9,2.47-5.79,3.85
				c-1.43-1.66-3.12-3.1-5.43-3.22c-1.23-0.06-2.4,0.34-3.35,1.12c-0.59,0.48-1.39,1.89-2.17,1.33c-0.93-0.67-1.45-1.87-2.31-2.63
				c-0.96-0.84-2.12-1.31-3.4-1.21c-2.89,0.22-4.56,2.63-5.81,4.96C69.5,46.02,72.09,47.54,73.01,45.84z"/>
			<path class="st1" d="M73.01,56.47c0.77-1.42,2.49-4.62,4.51-3.12c1.6,1.19,2.21,3.5,4.51,3.7c0.92,0.08,1.72-0.23,2.44-0.78
				c0.68-0.52,1.22-1.43,2.02-1.76c2.08-0.86,3.97,1.78,5.03,3.14c0.42,0.54,1.28,0.51,1.82,0.23c1.25-0.65,2.29-1.61,3.34-2.54
				c0.85-0.76,1.93-1.8,3.18-1.67c1.3,0.14,2.31,1.38,3.19,2.22c1.11,1.06,2.37,2.24,4.01,2.2c1.7-0.04,3.1-1.33,4.41-2.25
				c0.47-0.33,1-0.69,1.56-0.91c0.22-0.08,0.44-0.14,0.66-0.17c0.33-0.03,0.59,0.03,0.84,0.13c0.39,0.16,0.72,0.44,1.09,0.75
				c0.14,0.11,0.27,0.22,0.41,0.32c1.04,0.76,2.19,1.18,3.53,0.9c1.52-0.31,2.73-1.37,4.2-1.78c1.86-0.51,1.07-3.41-0.8-2.89
				c-0.76,0.21-1.47,0.54-2.17,0.9c-0.58,0.3-1.28,0.81-1.96,0.86c-0.7,0.06-1.15-0.5-1.64-0.91c-0.37-0.3-0.75-0.59-1.17-0.81
				c-0.24-0.13-0.49-0.24-0.75-0.32c-0.25-0.07-0.5-0.11-0.75-0.14c-0.5-0.05-1-0.02-1.5,0.07c-0.98,0.19-1.92,0.62-2.74,1.16
				c-0.68,0.45-1.31,0.97-2,1.42c-0.85,0.55-1.34,0.85-2.21,0.16c-2.26-1.81-4.11-4.46-7.4-3.84c-2.41,0.45-3.9,2.47-5.79,3.85
				c-1.43-1.66-3.12-3.1-5.43-3.22c-1.23-0.06-2.4,0.34-3.35,1.12c-0.59,0.48-1.39,1.89-2.17,1.33c-0.93-0.67-1.45-1.87-2.31-2.63
				c-0.96-0.84-2.12-1.31-3.4-1.21c-2.89,0.22-4.56,2.63-5.81,4.96C69.5,56.65,72.09,58.17,73.01,56.47z"/>
			<path class="st1" d="M43.62,105.86c0.3,0.1,0.62,0.11,0.91,0c0.29-0.1,0.55-0.31,0.74-0.66c0.12-0.23,0.28-0.53,0.47-0.84
				c0.56-0.94,1.39-1.96,2.34-1.17c0.42,0.35,0.75,0.77,1.07,1.17c0.53,0.65,1.07,1.25,2.05,1.43c1.44,0.26,2.16-0.63,3.13-1.43
				c0.05-0.04,0.09-0.08,0.14-0.12c0.67-0.53,1.35-0.33,1.95,0.12c0.54,0.4,1.03,1.01,1.4,1.5c0.07,0.1,0.15,0.19,0.21,0.27
				c0.42,0.53,1.28,0.52,1.82,0.23c0.28-0.15,0.55-0.32,0.81-0.51c0.55-0.39,1.06-0.83,1.56-1.28c0.08-0.07,0.16-0.14,0.24-0.22
				c0.53-0.48,1.18-1.07,1.9-0.98c0.58,0.07,1.09,0.53,1.54,0.99c0.24,0.24,0.46,0.48,0.66,0.67c0.44,0.4,0.89,0.79,1.39,1.08
				c0.43,0.24,0.89,0.4,1.39,0.43c0.1,0.01,0.19,0.02,0.29,0.01c0.68-0.03,1.29-0.3,1.86-0.64c0.47-0.28,0.91-0.62,1.35-0.93
				c0.03-0.02,0.07-0.05,0.1-0.07c0.42-0.29,0.98-0.74,1.51-0.75c0.52-0.01,0.8,0.34,1.19,0.65c0.87,0.71,1.83,1.08,2.96,0.88
				c1.16-0.2,2.08-0.98,3.19-1.31c1.85-0.54,1.06-3.44-0.8-2.89c-0.6,0.18-1.16,0.43-1.71,0.72c-0.37,0.19-0.89,0.58-1.31,0.54
				c-0.41-0.04-0.82-0.59-1.15-0.84c-0.44-0.32-0.9-0.55-1.43-0.67c-1.19-0.27-2.42,0.12-3.44,0.72c-0.55,0.32-1.03,0.74-1.56,1.09
				c-0.35,0.23-0.57,0.37-0.78,0.39c-0.13,0.01-0.26-0.02-0.41-0.11c-0.12-0.07-0.24-0.17-0.4-0.31c-1.56-1.42-3.13-3.07-5.46-2.58
				c-1.53,0.32-2.56,1.45-3.7,2.4c-0.09,0.08-0.19,0.15-0.29,0.23c-0.07-0.08-0.14-0.15-0.21-0.23c-1.02-1.06-2.24-1.91-3.78-1.96
				c-1.05-0.03-2,0.31-2.8,0.99c-0.23,0.2-0.46,0.58-0.72,0.7c-0.15,0.28-0.24,0.32-0.27,0.12c-0.16-0.16-0.31-0.32-0.44-0.5
				c-1.17-1.4-2.35-2.66-4.38-2.28c-1.68,0.32-2.77,1.54-3.62,2.91c-0.17,0.27-0.33,0.55-0.48,0.82c-0.13,0.23-0.18,0.46-0.19,0.68
				C42.46,105.07,42.99,105.66,43.62,105.86z"/>
			<path class="st1" d="M45.27,116.39c0.49-0.91,1.54-3.05,2.8-2.01c1.11,0.91,1.53,2.31,3.12,2.6c1.51,0.27,2.22-0.72,3.27-1.55
				c1.39-1.1,2.79,0.91,3.57,1.89c0.42,0.53,1.28,0.52,1.82,0.23c0.89-0.47,1.63-1.13,2.37-1.79c0.56-0.5,1.31-1.31,2.14-1.2
				c0.88,0.11,1.6,1.11,2.2,1.67c0.87,0.81,1.83,1.57,3.08,1.52c1.28-0.05,2.3-0.95,3.3-1.64c0.42-0.29,0.98-0.74,1.51-0.75
				c0.52-0.01,0.8,0.34,1.19,0.65c0.06,0.05,0.12,0.08,0.19,0.13c0.47,0.35,0.97,0.59,1.5,0.71c0.4,0.09,0.82,0.12,1.27,0.04
				c0.08-0.01,0.15-0.05,0.23-0.07c1.05-0.26,1.93-0.93,2.96-1.24c1.85-0.54,1.06-3.44-0.8-2.89c-0.6,0.18-1.16,0.43-1.71,0.72
				c-0.19,0.1-0.42,0.25-0.66,0.37c-0.22,0.11-0.45,0.19-0.66,0.17c-0.35-0.04-0.68-0.42-0.98-0.69c-0.06-0.05-0.11-0.11-0.17-0.15
				c-0.44-0.32-0.9-0.55-1.43-0.67c-0.08-0.02-0.16-0.02-0.23-0.04c-1.11-0.17-2.25,0.2-3.21,0.76c-0.55,0.32-1.03,0.74-1.56,1.09
				c-0.75,0.5-0.93,0.57-1.59-0.03c-1.56-1.42-3.13-3.07-5.46-2.58c-1.66,0.35-2.72,1.63-3.99,2.62c-1.06-1.16-2.34-2.14-3.99-2.19
				c-1.05-0.03-2,0.31-2.8,0.99c-0.23,0.2-0.46,0.58-0.72,0.7c-0.15,0.28-0.24,0.32-0.27,0.12c-0.16-0.16-0.31-0.32-0.44-0.5
				c-1.17-1.4-2.35-2.66-4.38-2.28c-2.01,0.38-3.19,2.05-4.1,3.74C41.76,116.57,44.34,118.09,45.27,116.39z"/>
		</g>
	</g>
</g>
</svg>
